<?xml version="1.0" encoding="utf-8"?>
<!-- Generator: Adobe Illustrator 24.2.3, SVG Export Plug-In . SVG Version: 6.00 Build 0)  -->
<svg version="1.1" id="Layer_1" xmlns="http://www.w3.org/2000/svg" xmlns:xlink="http://www.w3.org/1999/xlink" x="0px" y="0px"
	 viewBox="0 0 550.3 199.5" style="enable-background:new 0 0 550.3 199.5;" xml:space="preserve">
<style type="text/css">
	.st0{display:none;}
	.st1{fill-rule:evenodd;clip-rule:evenodd;stroke:#000000;stroke-width:3.600000e-02;stroke-miterlimit:10;}
	.st2{fill-rule:evenodd;clip-rule:evenodd;fill:#FFFFFF;stroke:#000000;stroke-width:3.600000e-02;stroke-miterlimit:10;}
</style>
<g class="st0">
	<g>
		<path d="M132.6,183c-0.5,3.2-2.1,4.2-5.3,3.5c-0.5,0-1,0.1-1.4,0.5c-1.6,1.4-3.5,2.4-5.6,2.7c-1.7,0.3-3.3-0.2-4.5-1.4
			c-0.5-0.7-1.5-0.8-2.1-0.3c0,0-0.1,0-0.1,0.1c-1.7,1-3.6,1.5-5.6,1.5c-2.2,0.1-4.3-1-5.5-2.9c-1.9,0.6-3.7,1.2-5.4,1.6
			c-3.2,0.6-6.2-0.8-7-3.5c-0.1-0.2-0.8-0.5-1.1-0.4c-1.4,0.4-2.7,1-4.1,1.5c-2.4,1-4.9,1.4-7.5,1.1c-1.5-0.2-2.8-1-3.8-2.1
			c-0.3-0.3-0.7-0.5-1.1-0.4c-2.7,0.4-5.4,0.8-8.1,1.2c-1,0-1.9,0.9-1.9,1.9c-0.4,3-1.7,5.7-3.6,8c-2.2,2.6-6.8,3.4-10,1.8
			c-3.1-1.8-4.6-5.4-3.7-8.9c0.5-1.5,1.1-3.1,1.8-4.5c-1.3-0.2-2.7-0.4-4-0.5c-0.2,0-0.4,0.1-0.5,0.2c-1.3,0.6-2.7,1.2-4,1.8
			s-2.6,1-3.9,1.6c-2.3,1-4.6,1.3-6.7-0.6c-0.2-0.2-1-0.1-1.4,0.1c-1.8,0.6-3.6,1.4-5.5,1.9c-1.9,0.4-3.9,0.2-5.6-0.8
			c-0.6-0.2-1.2-0.4-1.8-0.4c-1.1,0-2.1-0.1-3.2-0.3c-0.8-0.2-1.5-0.7-1.9-1.4c-0.5-0.7-1.2-1.2-2-1.4c-1.6-0.6-3.2-1.4-4.7-2.3
			c-1.2-0.8-1.9-2.2-1.8-3.6c0-2.1,0.6-4.1,1.8-5.9c0.6-1,1.2-2.1,1.5-3.2c0.9-2.5,2.9-4.5,5.4-5.4c1.6-0.6,3.1-1.4,4.4-2.5
			c2.1-1.6,4.5-2.6,7.1-3.1c0.8-0.3,1.6-0.7,2.3-1.1c0.5-0.3,1.1-0.6,1.7-0.8c2.5-0.8,4.9-1.5,7.5-2.3c-1-2.4-1-4.8,0.8-6.9
			c0.6-0.6,1.4-1.1,2.3-1.4c1-0.2,1.6-1.1,1.4-2.1c0-0.1,0-0.1,0-0.2c-0.4-2.8-0.8-5.6-1.1-8.4c-0.8-7.1-1.7-14.2-2.5-21.3
			c-0.8-7.8-1.4-15.7-2.2-23.5c-0.6-5.5-0.7-11-0.2-16.5c0.2-2.6-0.4-5.3-0.6-8c-0.1-0.7-0.4-0.9-1-1.1c-1.4-0.3-2.7-0.6-4.1-1
			c-1.7-0.5-2.6-1.6-2.4-3.4c0.5-3.1,0.9-6.2,3-8.8c1.4-2,2.5-4.3,3.3-6.6c0.7-2.4,2.5-4.2,4.9-4.9c2.7-0.7,5.4-1.3,8.1-1.7
			c6-0.9,12-1.6,18-2.3c0.8,0,1.5,0,2.3,0c-0.2-2.3-0.3-4.6-0.6-6.9c-0.8-6.1-1.7-12.1-2.6-18.1c-0.5-2.3-1-4.6-1.4-7s0-2.9,2.3-3.1
			c2-0.2,4-0.5,6-0.6c2.1-0.1,2.8,0.5,3.2,2.5c0.5,3,0.8,6,1.1,9c0.9,7.8,1.7,15.7,2.6,23.5c0,0.3,0.1,0.5,0.1,0.9
			c1.9-0.4,3.9-0.6,5.8-0.7c8.2,0.1,16.4,0.2,24.5,0.6c2.1,0.2,4.2,0.8,6.2,1.7c1.7,0.6,2.8,2.3,2.6,4c0,0.8,0,1.5,0.1,2.3
			c0,1.4,0.9,2.6,2.1,3.1c1.1,0.4,1.8,1.4,1.9,2.6c0.2,2,0.3,4,0.4,6c0.1,1.5-0.8,3-2.3,3.5c-0.4,0.2-0.7,0.6-0.8,1
			c-0.1,4.7-0.1,9.4-0.3,14.1c-0.3,7.3-0.6,14.5-1.1,21.8c-0.7,9.8-1.5,19.7-2.3,29.5c-0.3,3.2-0.4,6.5-0.6,9.7c2,1,4.3,1.1,6.4,0.3
			c4.6-1.9,9.2-1.3,13.8,0.5l1.2,0.5c0-2.3,0.1-4.5,0-6.7c-0.4-7.9-0.8-15.7-1.1-23.6c-0.2-4.4-0.1-8.8-0.2-13.2
			c-0.1-3.7-0.3-7.3-0.4-11c-0.1-2,0.3-2.6,2.2-3.1c1.7-0.5,3.4-0.8,5.3-1.2c-0.3-2-0.6-4.3-0.9-6.6c-0.6-5-1.3-10.1-1.8-15.1
			c-0.2-2.4-0.3-4.7-0.3-7.1c0-0.7,0.3-1.4,0.9-1.8c1.9-1.2,3.9-2.4,6-3.4c0.7-0.2,1.5-0.2,2.3,0c2.6,0.5,5.3,1.1,7.9,1.6
			c1.1,0.2,2.2,0.2,3,1.4c0.1-1.7,0.2-3.5,0.5-5.2c0.3-2.1,0.6-4.1,0.9-6.2c0.1-0.8,0.6-1.4,1.4-1.6c2.5-0.8,5-1.7,7.4-2.6
			c0.5-0.2,1-0.2,1.5-0.1c2.4,0.5,4.8,1.1,7.1,1.6c0.6,0.1,1.2,0.2,1.7,0.5c0.9,0.6,2.2,0.4,2.8-0.5c0,0,0,0,0,0
			c0.2-0.2,0.4-0.3,0.6-0.5c2-2,4.8-3,7.6-2.7c1.1,0,2.2-0.2,3.3-0.4c1.8-0.2,3.5-0.3,5.2-0.5c1.2-0.2,2.5,0.5,2.7,1.8
			c0.2,0.4,0.4,0.9,0.6,1.5c0.8-0.7,1.4-1.4,2.1-2c0.9-0.9,2.2-1.2,3.4-1c2.7,0.3,5.4,0.4,8,0.7c1.6,0.1,3.1,0.4,4.6,0.7
			c1,0.1,1.7,0.9,1.6,1.9c0,0,0,0.1,0,0.1c0,1.4,0.1,2.8,0.2,4.4c0.8-0.1,1.6-0.1,2.4-0.1c0.7,0.1,1.4,0.3,2.1,0.6
			c2.2,1.2,4.3,2.5,6.4,3.7c1.9,1,2.1,1.5,1.5,3.7c-1.5,5.6-3,11.1-4.5,16.7c0,0.2-0.1,0.3-0.1,0.7c1.7,0.5,3.5,1,5.2,1.5
			c2,0.5,2.6,0.9,2.8,3s0,4,0,6.1c1.4,0.5,1.3,2,1.2,3.4c-0.2,3.4-0.4,6.8-0.6,10.4c0.9-0.2,1.8-0.4,2.6-0.4
			c1.1-0.1,2.2-0.1,3.4-0.1c0.3,0,0.6,0,0.9-0.1c2.4-1,4.7-1.9,7.1-2.9c0.2-0.1,0.6-0.3,0.6-0.5c0.4-1.5,1.6-2,2.9-2.4
			c2.4-0.8,4.9-1.5,7.5-1c0.7,0.2,1.7-0.4,2.2-0.1c1.3,0.8,2.4,0.1,3.5-0.2c0.3-0.1,0.7-0.2,1.1-0.2c1.2-0.2,2.4-0.8,3.4-1.5
			c3.1-2,6.5-3.3,10.3-1.8c1.8,0.7,3.7,1.2,4.9,2.8c0.2,0.2,0.6,0.2,1,0.3l4,1.1c0.2,0,0.4,0.2,0.5,0.1c3.8-1.2,7.6-0.7,11.3,0.6
			c1.2,0.2,2.2,1.1,2.6,2.3c0.1,0.2,0.4,0.4,0.7,0.5c2.3,0.9,4.5,1.9,6.9,2.8c0.4,0.1,0.8,0.1,1.2,0.1c1,0,2,0,2.9,0.1
			c1,0.2,1.9,0.4,2.8,0.7c-0.1-2.6-0.2-5.1-0.3-7.5c-0.1-1.6-0.1-3.2-0.1-4.8c0-0.4,0.2-1,0.5-1.2c1.2-0.4,0.8-1.3,0.7-2.2
			c-0.1-1.6-0.1-3.3,0-4.9c0-1.3,1.1-2.4,2.4-2.6c1.8-0.5,3.7-1,5.6-1.5l-2.5-9.5c-0.7-2.7-1.5-5.5-2.2-8.2
			c-0.5-1.7-0.1-2.3,1.5-3.2c2.1-1.2,4.1-2.3,6.1-3.6c1-0.7,2.2-1,3.4-0.8c0.5,0,1.1,0,1.6,0c0.1-1.5,0.2-2.9,0.2-4.2
			c-0.1-1,0.5-2,1.6-2.1c0.1,0,0.1,0,0.2,0l10.5-1.1c0.4,0,0.8,0,1.2,0c2.3-0.7,3.9,0.3,5.4,2c0.2,0.3,0.6,0.5,0.9,0.9
			c0.2-0.7,0.6-1.4,1-2.1c0.4-0.5,1-0.9,1.7-1.1c1.4-0.1,2.8,0,4.2,0.1c2.7,0.2,5.5,0.5,8.2,0.8c0.7,0.1,1.3,0.3,1.9,0.7
			c1.4,0.9,2.6,2,4,2.9c0.4,0.2,0.8,0.2,1.2,0.1c1.5-0.3,3-0.7,4.5-1s3.1-0.8,4.6-1.2c0.4-0.2,0.8-0.2,1.3-0.2c2.9,1,5.8,1.9,8.7,3
			c0.5,0.3,0.7,0.8,0.8,1.4c0.5,3.6,0.9,7.3,1.4,10.9c0,0.2,0.1,0.4,0.2,0.6c0.5-1.6,1.7-1.5,2.9-1.6c2.8-0.2,5.5-0.8,8.2-1.8
			c0.6-0.2,1.3-0.2,1.8,0.1c2.1,1.1,4.2,2.2,6.2,3.5c0.5,0.5,0.8,1.2,0.8,1.9c0,7.7-0.7,15.3-2.2,22.9c-0.4,2-0.6,4-0.8,6.1
			c2.4-0.4,4.4,0.4,6.4,1.2c1.3,0.4,1.2,1.7,1.2,2.8c-0.1,6.7-0.2,13.3-0.4,20c-0.2,7.3-0.8,14.6-1,21.9c-0.1,4.1,0,8.2,0,12.5
			c0.2-0.1,0.6-0.2,0.9-0.3c4.9-2,9.9-2.4,14.8-0.2c2,0.9,3.5-0.2,5.4-0.4c0-0.6,0-1.2,0-1.8c-1-12.9-2.1-25.8-2.9-38.7
			c-0.7-10.9-1-21.8-1.5-32.7c0-0.2,0-0.3,0-0.5c0.3-1.4,0.2-2.5-1.5-3.2c-1-0.5-1.6-1.7-1.5-2.8c0.1-2,0.2-4.1,0.4-6.1
			c0-1.2,0.8-2.2,1.9-2.6c1.2-0.5,2-1.6,2.1-2.9c0.1-0.4,0.1-0.9,0.1-1.3c0.2-3.6,1.4-5.2,4.9-6.1c2.5-0.6,5-1,7.6-1.2
			c4.5-0.2,9,0,13.5,0c0.4,0,0.8,0,1.2,0c4-0.2,8-0.4,12.1,0.8c0.3-2.5,0.5-4.8,0.8-7c0.8-7.7,1.6-15.4,2.4-23.1
			c0.2-1.3,0.4-2.5,0.7-3.8c0.3-1.6,1.1-2.3,2.6-2.2c2.5,0.2,4.9,0.4,7.4,0.8c1.2,0.1,1.6,0.9,1.4,2.2c-0.2,1.7-0.6,3.5-0.9,5.2
			c-1,6.3-2,12.6-2.9,18.8c-0.4,2.9-0.6,5.8-0.9,8.6c5.9,0.7,11.5,1.3,17.1,2c3.2,0.4,6.5,1,9.7,1.7c3.2,0.5,5.7,2.8,6.7,5.8
			c0.9,2.6,2.7,4.9,3.9,7.4c0.8,2,1.4,4,2,6c0.1,0.5,0.2,1,0.2,1.5c0.3,1.6-0.8,3.2-2.4,3.5c0,0,0,0,0,0c-1.3,0.3-2.6,0.7-4,1
			c-0.8,0.1-1,0.5-1.2,1.2c-0.7,3.3-0.9,6.6-0.5,9.9c0.6,5.1,0.1,10.2-0.4,15.3c-1.1,10.8-2.2,21.6-3.3,32.3
			c-0.7,6.4-1.5,12.8-2.2,19.2c-0.1,0.9-0.9,1.8,0.2,2.6c0.2,0.2,0.4,0.4,0.7,0.5c3,0.8,4.7,3.8,3.9,6.8c0,0.1,0,0.1-0.1,0.2
			c-0.1,0.5-0.3,0.9-0.4,1.4c2.5,0.8,5,1.5,7.5,2.3c0.5,0.1,1,0.3,1.4,0.7c0.8,0.8,1.8,1.2,2.8,1.3c2.7,0.5,5.3,1.7,7.4,3.5
			c1,0.9,2.3,1.5,3.5,1.9c3,0.8,5.2,3.2,5.9,6.2c0.3,0.8,0.7,1.6,1.2,2.3c1.2,1.7,1.8,3.7,1.9,5.7c0.2,1.6-0.5,3.1-1.8,3.9
			c-1.6,0.9-3.3,1.5-5,2.3c-0.4,0.2-1,0.4-1.2,0.8c-0.6,1.4-2.1,2.3-3.7,2.2c-1.7-0.1-3.4,0.3-5,0.9c-2.5,1.1-5,0.3-7.5-0.6
			c-0.4-0.1-0.8-0.3-1.2-0.6c-1.2-0.7-2.2-1-3.5,0.1s-2.9,0.9-4.5,0.4c-2.4-0.9-5-1.5-7.3-2.7c-1.7-0.9-3.6-1.2-5.5-0.8
			c-0.3,0-0.6,0-1.2,0c0.4,0.8,0.8,1.4,1.1,2.1c1.6,3.3,1.8,6.6-0.7,9.6c-1,1.3-2.4,2.1-4,2.4c-4.4,0.8-7.1-0.4-9.4-4.3
			c-1.2-2-2.1-4.3-2.4-6.6c-0.1-0.7-0.4-1.1-1.1-1.2c-3-0.5-6-0.9-9-1.4c-0.3,0-0.5,0.1-0.7,0.3c-1.8,2.5-4.4,2.7-7.1,2.4
			c-1.6-0.3-3.2-0.7-4.7-1.3c-1-0.3-2-0.7-2.9-1.1s-1.6-0.5-2.1,0.8c-0.8,2-2.6,2.8-4.7,2.9c-2,0.1-4.1-0.3-5.9-1.2l-1.1-0.6
			c-3.5,3.5-6.5,4-11,1.7c-1-0.5-1.7-0.7-2.7,0.2c-1.5,1.4-3.6,1.8-5.5,1c-1.5-0.7-3-1.5-4.5-2.4c-0.4-0.3-0.9-0.5-1.5-0.5
			c-3.2,0.6-4.7-0.3-5.3-3.5c-1.5,2.6-2.8,3-5.8,2c-1.8-0.7-3.7-1.2-5.7-1.5c-2.8-0.3-5.5,0.7-7.3,2.8c-1.4,1.4-2.7,2.9-3.9,4.5
			c-2.4,3.1-3.9,3.6-7.6,2.7c-8.3-2-16.6-4-24.9-5.9c-2.5-0.6-4.9-1.1-7.4-1.7c-0.8-0.4-1.7,0-2.1,0.8c0,0,0,0,0,0
			c-1,1.6-2.6,2.7-4.4,3.1c-4.4,1.3-8.7,2.7-13.1,3.7c-7.6,1.9-15.2,3.3-23,4.1c-11.1,1.3-22.2,1.9-33.4,1.9
			c-4.4-0.1-8.8,0.1-13.2,0c-13.4-0.3-26.7-1.2-39.9-3.7c-7.3-1.4-14.6-3.4-21.8-5.2c-1.7-0.5-3.3-1.3-4.8-2.2
			c-0.8-0.4-1.4-1-1.8-1.7c-0.5-1.1-1.2-1-2.1-0.8c-6.4,1.5-12.8,3.1-19.2,4.6c-2.9,0.7-5.9,1.2-8.8,1.9c-1.9,0.4-3.8,1-5.7,1.4
			c-2.1,0.6-4.4-0.3-5.6-2.1c-1.4-1.7-2.7-3.4-4.2-5c-2.7-2.8-5.8-4-9.6-2.6c-1.2,0.4-2.5,0.6-3.7,1
			C135.4,186,134.2,185.6,132.6,183L132.6,183z M240.3,87.4c0.2,2.4-1.4,3.6-3.4,4.5c-1.3,0.5-2.5,1-3.8,1.4c-1.9,0.7-4.1,0.7-6,0
			c-0.3-0.1-0.6-0.1-0.9,0.1c-4.7,2.7-9.4,5.5-14,8.3c-2.8,1.7-4.9,4.3-6.1,7.4c-2.2,5.4-3.2,11.2-2.9,17c0.2,3.2,1.4,5.2,4.4,6.3
			c5.3,1.9,10.8,3.1,16.4,3.5c6.5,0.6,12.9,1.1,19.4,1.4c6.4,0.4,12.9,0.7,19.3-0.1c3.4-0.5,6.8-0.8,10.3-0.9
			c3.4-0.1,6.8,0.3,10.2,0.6c4,0.3,8.1,1,12.1,0.9c11.1-0.5,22.2-1.2,33.3-2c5.1-0.4,10.2-1.6,14.9-3.6c2.1-0.7,3.5-2.6,3.6-4.8
			c0.6-5.1,0-10.3-1.6-15.2c-1.3-3.7-2.7-7.4-6.1-9.7c-4.4-2.9-9.1-5.6-13.6-8.3c-1.1-0.7-2.2-1.3-3.6-0.5c-0.5,0.1-0.9,0.2-1.4,0.1
			c-2.3,0.1-4.5-0.8-6.6-1.6s-4.3-2-4-4.8l-6.5-1.6c-1.3-0.3-2.5-0.7-3.9,0c-0.8,0.3-1.7,0.5-2.6,0.3c-1.7-0.1-3.4-0.3-5.1-0.6
			c-1.4-0.2-2.6-1.2-3-2.5c-0.2-0.7-0.4-1.4-0.6-2c-1-0.1-1.9-0.2-2.8-0.4s-1.8-0.5-2.9-0.8c-0.9,1.2-2.3,2-3.8,2
			c-2.3,0.1-4.5,0.1-6.8,0.1c-1.5,0-3-0.6-4-1.8c-0.2-0.2-0.5-0.2-0.7-0.2c-1.7,0.4-3.5,0.8-5.3,1.2c-0.4,2.8-1.8,4.5-5.1,4.5
			c-0.7,0-1.3,0.1-2,0.3c-1.7,0.3-3.5,0.1-5.1-0.5c-0.3-0.2-0.7-0.2-1-0.2C245.9,86,243.2,86.6,240.3,87.4L240.3,87.4z M197.5,171.4
			c0,0.3,0,0.6,0.1,0.8c0.5,2.7,1.2,5.3,1.5,8c0.4,4,2.3,6.1,6.2,7.2c8.3,2.4,16.7,4.3,25.2,5.6c7,1,14.1,1.8,21.2,2.2
			c7.5,0.5,15.1,0.4,22.7,0.6c12.3,0.3,24.6-0.3,36.8-1.6c11.5-1.3,22.9-3.6,34-7c1.3-0.4,2.5-0.9,3.7-1.6c0.7-0.4,1.2-1.1,1.4-1.9
			c0.8-3.1,1.4-6.3,2.1-9.5c0.2-0.9,0.3-1.9,0.4-2.9c-0.4,0.1-0.7,0.2-1,0.2c-5.4,1.6-11,2.3-16.6,2.1c-4.8-0.1-9.6-0.3-14.5-0.4
			c-3.3-0.1-6.6-0.5-9.9-1.1c-1.9-0.3-3.8-0.9-5.6-1.6c-0.5-0.3-1.1-0.3-1.7-0.2c-2.5,0.9-5.1,1.7-7.6,2.6c-6.4,2.1-13.2,3.3-19.5,6
			c-0.9,0.3-1.8,0.3-2.6,0c-1.5-0.4-2.8-1.2-4.2-1.6c-7.3-2.2-14.7-4.4-22-6.6c-0.9-0.3-1.8-0.8-2.7,0.1c-0.4,0.3-0.8,0.4-1.2,0.4
			c-2.5,0.6-5,1.3-7.5,1.6c-3.3,0.4-6.7,0.5-10,0.6c-1.5,0.1-3-0.4-4.4-0.2c-7.6,1-15.3,0.4-22.7-1.6L197.5,171.4z M419.7,81.7
			c-4.5,1.3-8.9,2.6-13.2,3.7c-3.7,0.9-7.4,1.7-11.1,2.4c-1.4,0.3-2.8,0.4-4.2,0.5c-0.9,0-1.2,0.3-1.2,1.2c0.1,4.2,0.1,8.3,0.1,12.5
			c0,2.8,0,5.7,0,8.5c0,2-0.2,4-0.2,6c0.1,10.7,1.2,21.4,0.3,32.1c-0.5,6-0.4,12.1-0.5,18.2c0,1.5,0,3,0.1,4.6
			c0.3,4.4,0.6,8.8,1,13.3c0.1,1.4,0.3,2.9,0.4,4.4c1.7-1.9,3.2-3.8,5-5.5c3.6-3.4,7.8-4.7,12.7-3.2c1.5,0.5,3.1,0.8,4.9,1.2
			c0.3-2.1,0.6-4.1,0.7-6.1c0.9-9.8,1.9-19.6,2.5-29.5c0.8-13.5,1.1-27.1,1.7-40.6c0.3-7.2,0.8-14.3,1.1-21.4
			C419.9,83.2,419.8,82.5,419.7,81.7L419.7,81.7z M136.5,181.6c2-0.5,3.7-1.1,5.5-1.4c1.4-0.3,2.8-0.4,4.2-0.3
			c3.3,0.3,6.4,1.9,8.5,4.4c1.4,1.5,2.7,3.1,4.2,4.8c0.1-0.4,0.1-0.7,0.1-1c0.3-3.6,0.6-7.2,0.8-10.9c0.2-3.3,0.6-6.6,0.6-9.9
			c0-5.6-0.2-11.3-0.4-16.9c-0.4-7.4-0.5-14.9-0.2-22.3c0.4-5.4,0.2-10.8,0.3-16.2c0-3.8,0-7.5,0-11.2s0-7.3,0-11
			c0-0.8-0.2-1.2-1.2-1.2c-1.3-0.1-2.7-0.2-4-0.5c-1.9-0.4-3.8-0.8-5.7-1.2c-3.9-0.9-7.9-1.8-11.8-2.8c-2.3-0.6-4.5-1.5-6.9-2.4
			c-0.1,0.9-0.2,1.7-0.2,2.6c0.3,6,0.6,12,1,18.1c0.5,9,1,18,1.4,26.9c0.4,8.8,0.7,17.6,1.2,26.3c0.5,7.3,1.2,14.6,1.9,22
			C136,178.7,136.2,180,136.5,181.6L136.5,181.6z M352.6,124.6c7.3-0.4,13.6,4.7,16.2,8.8c2.4,3.8,1.5,6.3-3,7.2
			c-2.5,0.4-5,0.6-7.5,0.8l-2,0.2c1.8,7.1,1.7,7.8-2.3,10.2c0.7,3.3,0.1,4.2-3,5c-0.7,0.2-1.5,0.3-2.5,0.4c0.6,0.3,1,0.5,1.4,0.7
			c2,0.9,4,1.7,6,2.7c2.4,1.2,3,2.9,2.1,5.5c-0.5,1.6-1.6,3-3,3.9c-0.6,0.3-0.9,1-0.7,1.7c0.2,1.6,0.4,3.2,0.4,4.9
			c0,1.8-0.1,3.6-0.2,5.4l33.3,8.7c0-0.6,0-1.2,0-1.9c-0.1-2.6-0.2-5.1-0.2-7.7c0-2.7,0.1-5.4-0.1-8.1c-0.6-8.2-0.8-16.5-0.4-24.7
			c0.3-4.7,0.4-9.5,0.5-14.2c0.2-7.1,0.3-14.1,0.6-21.2c0.4-4.7,0.5-9.5,0.4-14.3c-0.2-3,0-6.1,0.1-9.1c0-0.4,0-0.7,0-1.1
			c-2.1-0.2-4-0.3-6-0.5c-0.7-0.1-0.9,0.3-1,0.8c-0.4,2-1,4-1.3,6c-0.7,5.2-2.7,10.1-5.6,14.4c-0.8,1.2-1.9,2.3-3,3.2
			c-4.3,3.4-9.6,5.4-15.1,5.6c-1.7,0.1-3.4,0-5.1,0L352.6,124.6z M197.6,124.5l1.2-6.6c-0.1,0-0.2-0.1-0.3-0.1c-0.7,0-1.4,0-2.2,0.1
			c-4.9,0.2-9.8-0.9-14.2-3.2c-6.4-3.3-9.5-9-11.3-15.6c-0.9-3.3-1.5-6.8-2.3-10.2c-0.1-0.4-0.5-1-0.8-0.9c-2.1,0.1-4.2,0.3-6.4,0.4
			c0,5.6,0,11.1,0,16.6c0,1.1,0.1,2.2,0.2,3.2c0.4,7.1,0.8,14.1,1.1,21.2c0.2,4.8,0.1,9.5,0.2,14.2c0.1,6.7,0.3,13.4,0.3,20.1
			c0,4.1-0.4,8.1-0.5,12.2c-0.1,4.4-0.2,8.7-0.2,13.1c0,0.6,0,1.1,0,1.6l33.3-8.7c0-0.5-0.1-1-0.1-1.4c-0.1-3-0.6-6,0.2-9
			c0.2-0.6,0-1.2-0.6-1.5c-1.5-1-2.7-2.5-3.2-4.2c-0.8-2.4-0.2-4,2.1-5.2c0.8-0.4,1.7-0.7,2.5-1.1l5.1-2.3c-1.1-0.2-1.9-0.3-2.7-0.5
			c-3.1-0.8-3.6-1.7-2.9-4.8c0-0.1,0-0.1-0.1-0.2c-3.1-1.6-4-3.5-3.1-7c0.2-1,0.6-2,1-3.2c-0.9-0.1-1.7-0.1-2.5-0.2
			c-2.6-0.2-5.2-0.5-7.7-0.9c-3.7-0.9-4.7-3.2-2.6-6.4C184.9,128,190.3,124.7,197.6,124.5L197.6,124.5z M480.3,168.2
			c-0.3-0.6-0.7-1.1-1.1-1.6c-1-1.1-2-2.1-3-3.2c-0.7-0.8-1.4-1.7-1.9-2.6c-0.8-1.4-1.3-3-2.1-4.4c-0.4-0.6-1-1.1-1.7-1.3
			c-1-0.3-1.8-0.9-2.4-1.8c-1.3-1.8-2.7-3.5-4.1-5.1c-0.9-1-2.3-1.5-3.6-1.2c-1.3,0.3-2.7,0-3.6-1c-0.5-0.5-1.1-1.1-1.6-1.6
			c-1.1-1.2-2.8-1.7-4.4-1.3c-2,0.6-4.2,0-5.6-1.5c-1.3-1.4-3.3-1.8-5-1.1c-1.9,0.7-2.9,0.2-4-1.4c-0.9-1.5-2.4-2.5-4.1-2.9
			c-3.8-0.7-7.8-0.2-11.3,1.5c-0.3,0.2-0.5,0.5-0.5,0.9c-0.3,5.7-0.5,11.4-0.7,17c-0.2,7.8-0.2,15.6-1.2,23.4
			c-0.2,1.8,2.3,3.9,4.1,3.6c1.2-0.2,2.4-0.1,3.6,0.2c1.4,0.5,2.8,1.1,4.2,1.8c0.9,0.5,2.1,0.5,3-0.1c1.2-0.8,2.7-1,4-0.5
			c1.2,0.4,2.5,0.9,3.7,1.3c1.6,0.7,3.5,0.3,4.7-1c1-1.1,2.5-1.4,3.9-1c1.6,0.4,3.1,0.7,4.7,1c1.4,0.4,2.8-0.1,3.6-1.2
			c1-1.4,2.9-1.9,4.5-1.4c2.3,0.5,4.6,1.2,6.9,1.6c1.3,0.2,2.5,0.3,3.8,0.1c0.8,0,1.2-0.5,1-1.5c-0.2-0.7-0.2-1.4,0-2.1
			c0.7-2.1,0.8-2-0.8-3.5c-0.2-0.2-0.3-0.3-0.5-0.5c-0.6-0.7-0.6-1.7,0-2.3c0.2-0.2,0.5-0.4,0.8-0.4c0.4-0.1,0.7-0.1,1.1-0.2
			c1.3-0.3,1.6-0.7,1.5-2.1s0.4-2,1.9-2.1C478.7,168.5,479.7,168.3,480.3,168.2L480.3,168.2z M69.6,168.1c0.9,0.2,1.9,0.4,2.8,0.4
			c1.6,0.1,2.2,0.7,1.9,2.2c-0.2,1.2,0.4,1.7,1.4,2c0.4,0.1,0.8,0.1,1.2,0.3c0.9,0.2,1.5,1.1,1.3,2c-0.1,0.3-0.2,0.6-0.5,0.9
			c-0.3,0.4-0.7,0.7-1.1,1.1c-0.8,0.5-1,1.5-0.5,2.3c0,0,0,0,0,0c0.4,0.8,0.5,1.7,0.3,2.6c-0.2,1.1,0.2,1.5,1,1.6
			c1.3,0.1,2.5,0,3.8-0.2c2.3-0.4,4.6-1.1,6.9-1.6c1.6-0.6,3.4,0,4.4,1.4c0.9,1.2,2.4,1.7,3.7,1.3c1.6-0.3,3.1-0.6,4.7-1
			c1.3-0.4,2.8,0,3.7,1c1.2,1.3,3.2,1.7,4.8,1c1.4-0.6,2.8-1,4.2-1.3c1.1-0.2,2.2,0,3.2,0.4c1.1,0.6,2.3,0.6,3.4,0.1
			c1.4-0.6,2.7-1.3,4.2-1.8c0.9-0.4,1.9-0.5,2.8-0.3c1.7,0.5,2.7-0.3,3.8-1.3c0.6-0.5,1-1.2,0.9-2c-0.4-3.7-0.8-7.3-0.9-11
			c-0.4-9.8-0.7-19.5-1-29.2c0-0.7-0.4-1.2-1-1.4c-3.2-1.4-6.7-1.9-10.2-1.5c-2,0.2-3.7,1.3-4.7,3c-1.1,1.7-2.1,2.1-4,1.4
			c-1.7-0.7-3.7-0.3-5,1.1c-1.5,1.5-3.7,2.1-5.7,1.5c-1.4-0.4-3,0-4,1.1c-0.5,0.4-1,0.9-1.5,1.4c-1,1.2-2.6,1.8-4.2,1.5
			c-1.2-0.3-2.5,0.1-3.4,1.1c-1.5,1.7-2.8,3.4-4.3,5.1c-0.5,0.6-1.1,1.5-1.8,1.6c-1.8,0.2-2.4,1.4-3,2.8c-0.5,1-0.8,2.2-1.4,3.2
			c-0.6,1-1.2,1.9-2,2.7c-0.8,0.9-1.8,1.7-2.6,2.6C70.8,166.6,70.3,167.3,69.6,168.1L69.6,168.1z M510.8,141.6l7.6-76.3
			c-14.6,1.8-29.2,2.7-44,1.6c-0.1,0.7-0.2,1.3-0.2,2c0.1,2.3,0.2,4.7,0.5,7.1c0.5,4.6,0.9,9.2,2.5,13.5c1.8,5,4.9,9.2,7.9,13.3
			c3.8,5.2,7.7,10.3,11.3,15.6c1.5,2.3,2.7,4.7,3.5,7.3c1.5,4.2,2.5,8.6,1.8,13.2c0,0.7,0,1.4,0,2.1
			C504.8,140.6,507.7,139.4,510.8,141.6L510.8,141.6z M39.5,141.5c2.2-1.4,5-1.7,7.4-0.6c0.2,0.1,0.4,0.1,0.6,0.1
			c0.7,0.1,1.1-0.1,1-1c-0.2-1.8-0.3-3.7-0.2-5.5c0.7-5.4,2-10.6,5-15.2c2.5-3.8,5.1-7.4,7.8-11.1c2.5-3.5,5.2-6.8,7.6-10.3
			c2.6-3.4,4.4-7.3,5.4-11.5c0.8-4.3,1.3-8.6,1.8-12.9c0.1-2.1,0.1-4.3,0-6.4c-14.8,1.1-29.4,0.2-44-1.6L39.5,141.5z M439.7,60.1
			c0,0.4,0,0.7,0.1,1.1c1.3,5.6,1.5,11.2,1.8,16.9c0.4,6.9,0.8,13.7,1.3,20.6c0.9,12.2,1.8,24.4,2.7,36.6c0,0.3,0,0.8,0.2,0.9
			c1.2,0.7,2.1,1.9,3.9,1.5c4.4-1.1,9,1.1,10.9,5.2c0.2,0.4,0.5,0.7,0.9,0.9c1.8,1.3,3.7,2.5,5.4,3.6c0.9-0.2,1.9-0.4,2.9-0.7
			c0.5-0.1,1.1-0.2,1.3-0.6c1-1.8,2.9-3.1,5-3.3c1.5-0.3,3-0.7,4.5-1.1c0.7-0.2,0.9-0.6,0.8-1.3c0-4-1.2-7.9-3.5-11.2
			c-2.4-3.5-5-6.8-7.6-10.2c-4.3-5.6-8.4-11.3-11.3-17.8c-5.4-12.1-3.2-23,5.1-33c0.5-0.6,0.9-1.3,1.2-1.7c-3.9-1-7.8-1.9-11.7-2.8
			c-1.2-0.3-2.5-0.5-3.7-0.8c-2.5-0.6-5-1.2-7.5-1.9C441.5,60.8,440.7,60.4,439.7,60.1L439.7,60.1z M83.5,147.5
			c1.6-1.1,3.4-2.3,5.2-3.5c0.4-0.2,0.8-0.6,1-1c1.8-3.9,6-6,10.2-5.3c1.5,0.3,3-0.1,4.1-1.1c0.3-0.3,0.6-0.7,0.6-1.1
			c0.5-7,1-14,1.5-20.9c0.9-12.4,1.7-24.9,2.6-37.3c0.3-4.3,0.8-8.5,1.2-12.8c0.1-1.4,0.5-2.7,0.8-4.3l-1.4,0.5
			c-1.8,0.8-3.7,1.4-5.6,1.8c-4,0.7-7.9,1.6-11.8,2.8c-0.2,0.1-0.5,0.1-0.7,0.1l-6.4,1.1c0.4,0.6,0.8,1.2,1.2,1.7
			c2.6,3,4.7,6.4,6.1,10.1c2.7,6.6,2.8,14.1,0.1,20.8c-3.2,8.2-8.2,15.3-13.8,22c-2.2,2.7-4.2,5.5-6.1,8.4
			c-2.2,3.3-3.3,7.2-3.4,11.1c0,0.7,0.2,1.1,0.9,1.3c1.6,0.4,3.2,0.8,4.8,1.1c2,0.3,3.7,1.4,4.7,3.2c0.2,0.4,0.9,0.5,1.3,0.7
			C81.5,147.1,82.4,147.2,83.5,147.5L83.5,147.5z M29.5,53.5c0.8,0.2,1.6,0.4,2.4,0.6c6.7,0.7,13.3,1.8,20,2.1s13.6-0.1,20.4-0.3
			c1.2,0,2.3-0.1,3.5-0.3c5.7-0.8,11.5-1.7,17.2-2.5c4.5-0.7,9.2-1,13.5-2.5c0.9-0.4,1.9-0.7,2.8-0.9c0.4-0.1,1,0.2,1.5,0.4
			c-0.1,0.5-0.3,1-0.5,1.5c-0.1,0.2-0.4,0.3-0.6,0.4c-2.2,0.9-4.4,1.6-6.7,2.2c-9.1,1.5-18.2,3.3-27.6,2.6
			c-6.2-0.5-12.4,0.2-18.6,0.4c-10.1,0.2-20.2,0.8-30-2.3c-0.8-0.2-1.1,0-1.1,0.7c-0.1,1-0.2,1.9-0.2,2.9c0,1.8,0,1.8,1.7,2.2
			c7.5,2,15.2,2.3,22.8,2.9c9.5,0.6,19,0.6,28.5-0.2c5.9-0.3,11.7-1.2,17.4-2.8c1.8-0.5,3.7-0.9,5.6-1.2c1-0.1,2-0.2,3-0.4
			c2.4-0.9,4.9-1.8,7.2-2.9c0.4-0.3,0.7-0.7,0.8-1.2c0-1.3,0-2.6-0.2-3.8c0-0.3-0.2-0.7-0.5-0.9c-2.8-1.4-3.5-3.9-3.6-6.7
			c-0.1-2.5-0.4-3-2.9-3.4c-3.2-0.5-6.3-0.9-9.5-1.1c-5.5-0.3-11-0.4-16.5-0.6c-2.3-0.1-4.5,0-6.9,0c0.2,1.1,0.3,2.2,0.2,3.3
			c-0.2,2.6-1,4.4-3.8,4.9c-1.5,0.2-3.1,0-4.4-0.8c-1-0.4-1.7-1.4-1.7-2.5c-0.2-1.4-0.4-2.9-0.8-4.3c-3.7,0.5-7.2,1-10.7,1.5
			c-5.2,0.8-10.5,1.5-15.6,2.4c-3.2,0.6-4,1.7-4.4,5C31.1,49.5,31,51.6,29.5,53.5L29.5,53.5z M520.3,53.7c-0.5-2-1.1-3.9-1.4-5.7
			c-0.6-4-1.2-4.7-5.2-5.6h-0.2c-5.2-0.7-10.4-1.5-15.7-2.2c-3.2-0.5-6.4-1-9.6-1.5c-0.1,0.3-0.2,0.6-0.2,0.8
			c-0.2,1.2-0.5,2.4-0.6,3.7c0,0.9-0.6,1.8-1.4,2.2c-0.9,0.4-1.8,0.8-2.8,1c-2.1,0.3-4.3-0.6-4.9-2.1c-0.6-1.2-0.9-2.7-0.6-4
			c0.1-0.7,0.2-1.4,0.1-2.1c-1.9,0-3.6,0-5.3,0c-7.3,0.2-14.6,0.4-21.9,0.8c-2.1,0.2-4.1,0.5-6.1,1c-2,0.4-2.3,1-2.4,2.9
			c0,0.7-0.1,1.4-0.2,2.2c-0.1,1.7-1,3.3-2.5,4.2c-1.1,0.6-1.7,1.8-1.6,3c0,0.7,0,1.4-0.1,2.2c-0.1,0.7,0.3,1.5,1.1,1.6c0,0,0,0,0,0
			c3.7,1.4,7.3,3,11.4,3.5c3.6,0.4,7,1.8,10.6,2.5c8.8,1.4,17.8,2,26.8,1.8c8.3-0.1,16.6-0.8,24.9-1.4c3.8-0.5,7.6-1.1,11.3-2
			c0.4-0.1,0.9-0.5,1-0.8c0-1.3,0-2.6-0.1-4c0-0.8-0.5-1-1.3-0.8c-9.7,3-19.6,2.4-29.5,2.3c-6.8-0.1-13.6-0.3-20.4-0.4
			c-2.2,0-4.4,0.3-6.6,0.1c-6-0.6-11.9-1.3-17.8-2.3c-2.9-0.7-5.8-1.6-8.5-2.7c-0.8-0.3-1.4-0.9-1-1.7c0.4-0.4,1-0.6,1.6-0.5
			c4.2,1.5,8.5,2.5,12.8,3c6.3,0.8,12.6,2.1,19,2.8c5.6,0.6,11.2,0.6,16.9,0.9c2.3,0.2,4.6,0.2,6.8,0.1c5.9-0.4,11.7-1,17.5-1.6
			C516.3,54.4,518.5,53.9,520.3,53.7L520.3,53.7z M197.4,125.9c-2.5,0.6-5,1.3-7.4,2.1c-3.6,1.4-6.6,4.2-8.2,7.7
			c-0.6,1.4-0.2,2.1,1.4,2s2.8-0.2,4.2-0.3c2.4-0.1,4.8-0.4,7.2-0.4c2.9,0,4.4,1.9,4.2,4.8c-0.1,0.9-0.3,1.7-0.6,2.6
			c-1.1,3.4-0.9,3.6,2.7,2.8c4.4-1,8.8-2.1,13.1-3.3s8.3-0.9,12,1.6c1.9,1.2,4.2,1.5,6.3,0.7c1.9-0.6,3.9-1,5.8-1.6
			c2.2-0.8,4.6,0,5.9,2c0.9,1.2,1.8,2.3,2.9,3.4c1.1,1.2,2.8,1.5,4.2,0.9c1.3-0.5,2.5-1.1,3.8-1.5c2.4-0.9,4.8-1.8,7.2-2.4
			c1.7-0.6,3.5-0.2,4.9,1c0.8,0.8,2.1,1,3.2,0.4c1.5-0.7,3.2-0.7,4.7-0.1c0.2,0.1,0.5,0.1,0.7,0.1c1.9-0.9,3.7-0.4,5.5,0.3
			c0.7,0.3,1.6,0.2,2.2-0.4c1.2-1.1,2.8-1.6,4.3-1.3c1.4,0.1,2.7,0.4,4,0.9c2.6,0.9,5,2,7.6,3.1c1.7,0.8,3.7,0.4,4.9-1.1
			c1-1.1,1.9-2.2,2.8-3.3c1.2-1.8,3.4-2.5,5.4-1.9c2,0.5,4.1,1.1,6.1,1.7c2.1,0.7,4.3,0.4,6.2-0.7c1.7-1,3.6-1.8,5.5-2.3
			c2.5-0.6,4.9,0.2,7.3,0.8c4.1,1.1,8.3,2.1,12.4,3.1c1.1,0.2,2.3,0.3,3.5,0.3c-0.3-1.2-0.6-2-0.8-2.9c-0.3-1.1-0.5-2.2-0.7-3.3
			c-0.2-2.1,1.3-4,3.3-4.2c0.1,0,0.2,0,0.3,0c1-0.1,2-0.1,3,0c2.7,0.2,5.3,0.5,8,0.7c0.8,0,1.6-0.2,2.4-0.4
			c-0.2-0.8-0.3-1.7-0.5-2.5c-0.1-0.3-0.3-0.6-0.5-0.8c-2-3.1-5.1-5.4-8.6-6.5c-1.9-0.6-4-0.9-6.1-1.4c0,0.6-0.1,0.8,0,1.1
			c0.2,3.9-1.8,6.3-5.4,7.6c-0.5,0.2-1,0.4-1.5,0.5c-9.7,3.2-20,4.7-30.2,4.4c-4.8-0.2-9.6,0.4-14.4,0.6c-2.2,0-4.4,0.1-6.6,0.4
			c-4.5,0.9-8.9,0.6-13.4,0.4c-3.5-0.2-7-0.2-10.4-0.1c-5.3,0.2-10.6,0.9-15.9-0.4c-0.5-0.1-1-0.1-1.5-0.1l-12-0.5
			c-2.6-0.1-5.1-0.4-7.7-0.3c-8.1,0.3-16.2-0.6-24.1-2.8c-3.3-0.9-6.6-1.5-9.6-3.5c-1.4-0.9-2.3-2.4-2.6-4
			C197.6,128.3,197.5,127.4,197.4,125.9L197.4,125.9z M67.5,140.5c0.3-2,0.5-4.2,1-6.3c1.1-4.2,3.6-7.7,6.1-11.2
			c3.5-4.8,7.1-9.4,10.5-14.3c3.1-4.3,5.3-9.2,6.5-14.3c1.8-9.1-0.9-17.2-6.8-24.3c-0.9-1.1-1.7-2.3-2.7-3.6L76.5,67
			c0.3,0.8,0.6,1.6,0.7,2.4c0.1,2.5,0.1,5,0,7.5c-0.2,4.4-1,8.7-2.3,12.9c-1.8,5.4-5.1,9.8-8.3,14.3c-3.5,4.8-7.1,9.6-10.6,14.4
			c-2.1,3-3.7,6.4-4.6,10c-1.1,3.6-1.4,7.5-0.8,11.2C56.4,139.9,62,140,67.5,140.5L67.5,140.5z M467.8,66.5
			c-0.3,0.6-0.6,1.2-0.9,1.7c-2.9,3.4-5.3,7.2-7,11.3c-1.9,4.6-2.3,9.7-1.4,14.6c1.3,5.7,3.8,11.1,7.3,15.8
			c3.1,4.4,6.5,8.7,9.7,13.1c2.5,3.5,5.1,7,6.1,11.3c0.5,2.1,0.7,4.3,1,6.3c5.5-0.6,11.1-0.6,17.1-0.7c0.1-2.1,0.1-4.1,0-6.2
			c-0.7-5.2-2.1-10.2-5.2-14.5c-4-5.5-7.8-11.1-12.1-16.4c-7.2-8.9-9.6-19.3-9.8-30.4c0.1-1.8,0.4-3.5,0.8-5.3L467.8,66.5z
			 M334.8,151.6c1.2-0.5,2.4-1,3.6-1.6c0.5-0.4,0.9-1,0.9-1.6c0-0.6-0.3-1.2-0.9-1.6c-1.6-0.7-3.2-1.3-4.8-1.7
			c-2.2-0.7-4.6-0.1-6.2,1.6c-0.4,0.4-0.9,0.9-1.3,1.3c-1.8,1.8-4.3,2.7-6.8,2.4c-1.9-0.2-3.8-0.8-5.4-1.9c-0.8-0.5-1.6-1-2.5-1.4
			c-1.5-0.7-2.4-0.3-3.1,1.2c-0.4,0.9-0.7,1.8-1,2.7c-2,4.5-5.3,6.1-9.9,4.5c-2.1-0.8-4.1-1.9-6.2-2.8c-1.2-0.6-2.5-1-3.8-1.4
			c-0.6-0.1-1.2,0.1-1.7,0.5c-2,2.3-4.5,2.4-7.1,1.3c-1.2-0.5-2.3-1.6-3.4-1.6s-2.3,1.1-3.5,1.6c-2.7,1.1-5.1,0.9-7.2-1.4
			c-0.4-0.4-1-0.5-1.6-0.4c-1.3,0.4-2.6,0.8-3.8,1.4c-2.1,0.9-4.2,2.1-6.4,2.9c-4.4,1.5-7.7-0.1-9.6-4.3c-0.4-0.9-0.7-1.9-1.1-2.8
			c-0.7-1.6-1.7-2-3.3-1.2c-1.1,0.5-2.1,1.3-3.2,1.9c-3.8,2.4-8.9,1.8-11.9-1.6c-0.3-0.4-0.8-0.8-1.2-1.1c-1.1-0.7-2.2-1.1-3.5-1.3
			c-2.4-0.1-4.8,0.5-6.9,1.8c-0.6,0.4-0.9,1-1,1.7c0.1,0.7,0.4,1.3,1,1.7c1.1,0.6,2.3,1.1,3.5,1.6l-1.4,1.7c0.9,1.3,2.3,1.5,3.6,1.9
			v-3.6c-1.6-0.3-2.5-0.8-2.7-1.8c0-0.8,0.1-1.5,0.4-2.3h0.4c0.2,2.2,2.8,1.4,3.5,3.1c-0.4,2,0.2,3.2,2.1,4c0.8,0.4,1.5,0.8,2.2,1.2
			c-1.8,1.1-2.2,1.2-4,0.7c-0.3-0.1-0.6-0.1-0.9,0.1c-1.9,1.1-4.4,0.5-5.6-1.5c-0.3-0.4-0.4-0.9-0.5-1.4c-0.1-0.2-0.1-0.3-0.2-0.4
			l-0.3,0.1c0.3,1.2,0.5,2.4,0.9,3.5c0.1,0.2,0.4,0.4,0.6,0.6c2,1.3,4.2,2.2,6.7,1.6c1.2-0.3,2.3-0.5,3.5-0.6c0.9,0,1.7,0,2.5,0.2
			c1.2,0.4,2.4,0.6,3.7,0.8c1.7,0,3.4-0.3,5.1-0.7c1.4-0.5,3-0.2,4.2,0.6c1.2,0.9,2.7,1.2,4.2,1c1.2-0.1,2.4-0.4,3.5-0.6
			c1.5-0.4,3-0.4,4.4,0.2c2.5,1.2,5.3,1.2,7.8,0.2c1-0.5,2.2-0.3,3,0.5c0.9,0.9,2.3,1.2,3.6,0.8c0.8-0.2,1.6-0.6,2.4-0.8
			s1.8-0.3,2.2,0.1c1.4,1.3,2.9,1.3,4.5,1.1c0.6-0.1,1.2,0,1.8,0.1c0.8,0.2,1.7-0.1,2.3-0.7c0.9-0.9,2.3-1.2,3.4-0.6
			c0.5,0.2,1,0.4,1.5,0.5c1.5,0.5,3,0.5,4.2-0.7c0.7-0.7,1.9-0.9,2.8-0.4c2.6,1.1,5.6,1,8.1-0.2c1.3-0.5,2.7-0.6,4-0.2
			c1.2,0.3,2.5,0.5,3.8,0.7c1.4,0.2,2.8-0.1,4-0.9c1.4-0.9,3.1-1.2,4.7-0.7c2.7,0.6,5.4,1.3,8.1,0c1.2-0.5,2.5-0.6,3.7-0.2
			c3.1,0.8,6.3,1.2,9.2-0.9c1.2-1.1,1.8-2.8,1.4-4.4c-0.1,0.2-0.1,0.3-0.2,0.5c-0.4,2.2-2.5,3.7-4.7,3.3c-0.5-0.1-0.9-0.2-1.3-0.5
			c-0.3-0.1-0.7-0.2-1-0.1c-1.3,0.6-2.9,0.3-3.9-0.8c0.8-0.4,1.5-0.9,2.2-1.2c1.9-0.8,2.5-2.1,2-4c0.8-1.6,3.3-0.9,3.7-3.1
			c0.4,0.7,0.6,1.5,0.5,2.4c-0.3,1.3-1.6,1.6-2.6,1.8v3.6c1.3-0.5,2.8-0.6,3.6-2L334.8,151.6z M56.8,171.7l0.3-0.2
			c-0.8-1.5,0-2.6,0.8-3.6c0.3-0.3,0.6-0.6,0.8-1c0.2-0.5,0.4-1.1,0.3-1.7c-0.1-1.1-0.5-2.2-0.6-3.3c-0.1-1.2-1.1-2.2-2.3-2.3
			c-1.3-0.3-2.6-0.9-3.7-1.8c-1-0.9-2.3-1.3-3.6-1.1c-1.4,0.1-2.8-0.1-4.1-0.1c-1-0.1-2,0-2.9,0.2c-2.1,1-4.5,0.9-6.5-0.2
			c-1.8-0.8-3.8-0.9-5.6-0.4c-2.6,0.6-4.5,2.8-7.2,2.9c-0.9,0.1-1.8,0.7-2.7,0.8c-2.4,0.3-4.6,1.4-6.2,3.1c-0.9,0.8-1.9,1.5-2.9,2
			c-0.7,0.3-1.5,0.6-2.2,0.9c-1.5,0.7-2.7,2.1-3,3.8c-0.4,1.3-1,2.6-1.7,3.7c-0.9,1.3-1.4,2.9-1.5,4.5c-0.1,1,0.4,1.9,1.2,2.3
			c1.3,0.6,2.7,1.1,4.1,1.6c0.7,0.3,1.6,0.4,1.9,0.9c0.9,1.5,2.2,1.3,3.5,1.3c1.2-0.1,2.4,0.1,3.5,0.5c1.4,0.7,2.9,0.9,4.4,0.4
			c1.5-0.5,3-1,4.5-1.6c1.4-0.7,3-0.7,4.4,0.1c0.8,0.3,1.6,0.3,2.4,0.1c2.4-0.8,4.7-1.7,7.1-2.6c0.2-0.1,0.3-0.2,0.5-0.3l-0.5-0.9
			c-2.3-4.3,0.2-12.3,7-12.5c0.3,0,0.6-0.1,0.8-0.2c1.8-0.7,3.6-1.5,5.5-2.2c0.3-0.1,0.9-0.1,1,0c0.2,0.3,0.2,0.9,0,1.1
			c-0.6,0.5-1.3,0.9-2,1.2c-0.5,0.2-1.1,0.4-1.7,0.5v0.4L56.8,171.7z M500.4,168.1c0-0.1,0-0.3,0-0.4c-0.6-0.1-1.1-0.2-1.7-0.4
			c-0.7-0.3-1.4-0.7-2-1.2c-0.2-0.2-0.1-0.8,0-1.1s0.7-0.1,1,0s0.8,0.4,1.3,0.6c1.1,0.4,2.2,0.7,3.2,1.1c0.5,0.3,1.1,0.5,1.6,0.6
			c4.3,0.2,7.7,3.7,7.9,8c0.2,1.9-0.2,3.8-1.2,5.4c2.8,1.1,5.4,2.2,8.1,3.2c0.6,0.2,1.3,0.1,1.8-0.2c1.4-0.9,3.1-0.9,4.6-0.1
			c1.4,0.6,2.8,1.1,4.3,1.6c1.5,0.5,3.1,0.3,4.5-0.4c0.8-0.4,1.7-0.5,2.6-0.6c0.8-0.1,1.7,0.1,2.5,0c0.3,0,0.9-0.1,1-0.3
			c0.8-1.6,2.4-1.8,3.9-2.1c4.2-1.1,5.3-4.4,2.8-7.9c-0.3-0.3-0.5-0.7-0.8-1.1c-0.4-0.6-0.7-1.3-0.9-2c-0.4-2.9-2-4.4-4.7-5.3
			c-1.2-0.3-2.3-0.8-3.1-1.7c-2.5-3.4-6.6-3.2-10-4.6c-0.9-0.3-1.8-0.6-2.7-0.9c-3.4-1.9-6.7-3.1-10.5-1.1c-1.6,0.8-3.5,0.8-5.1,0
			c-0.9-0.4-1.9-0.6-2.9-0.4c-1.8,0.4-3.6,0.5-5.3,0.1c-0.9-0.1-1.8,0.2-2.5,0.8c-0.9,0.8-2,1.8-3.1,1.9c-2.6,0.2-3.3,1.8-3.6,3.9
			c0,0.4-0.1,0.8-0.2,1.2c-0.4,1.1-0.1,2.2,0.8,3c1,1.1,2,2.3,1.2,4l0.2,0.2L500.4,168.1z M268.3,172.7c-3.1,0.9-28.2-7.5-31.4-10.1
			l1.4,0.1c-0.4-0.6-0.8-1-1.1-1.5c-0.4-0.7-0.8-0.6-1.4-0.2c-1.1,0.8-2.3,1.6-3.6,2.5l14,4.8c2.7,0.9,5.4,2,8.2,2.7
			c6.6,1.8,13.3,3.4,20,5.1c0.4,0.1,0.9,0.1,1.3,0c6.7-1.7,13.5-3.2,20.2-5.2s13-4.3,19.4-6.6c0.9-0.3,1.7-0.7,2.6-1
			c-0.8-0.4-1.7-0.9-2.5-1.4c-2-1.5-2-1.5-3.4,0.6c0,0,0,0.1,0,0.2l1.1-0.1c-0.3,0.2-0.6,0.4-0.9,0.5l-5.6,2.4
			c-1.1,0.5-2.1,1-3.3,1.4c-1.6,0.6-3.3,1.1-4.9,1.6c-4.8,1.5-9.6,2.9-14.5,4.4c-0.7,0.1-1.4,0.2-2.2,0.2l-0.1-0.4
			c0.6-0.4,1.2-0.7,1.9-0.9c1.8-0.5,3.6-0.9,5.3-1.4c5-1.6,10-3.2,15-4.8c0.8-0.2,1.6-0.7,2.3-1c-1.2-0.5-2.3-1.1-3.4-1.8
			c-1.8-1.3-2-1.3-3.8,0.1c-2.3,2-5.7,2.1-8.1,0.3l-1.2-0.8c-0.7,1.6-2.2,2.7-4,2.9c-1.7,0.2-3.4-0.3-4.7-1.4
			c-1.3,2.2-3.3,2.6-5.5,2.4c-0.4,0-0.9,0-1.3,0c-2.3,0.2-4.3-0.2-5.6-2.3c-4,2.3-5.8,2-8.7-1.3c-1,0.6-2.1,1.1-3.2,1.6
			c-2.2,0.7-4.6,0.1-6.2-1.5c-0.8-0.7-1.6-1.2-2.7-0.6c-1.4,0.8-2.8,1.7-4.2,2.5c0.8,0.3,1.6,0.7,2.4,1c1.4,0.4,2.8,0.8,4.1,1.2
			c5.4,1.7,10.7,3.3,16.1,5C267.2,172.1,267.7,172.3,268.3,172.7L268.3,172.7z M48.2,152.4c-2.5,1-3.7,0.8-4.6-0.7
			c-0.3-0.7-1.1-1.1-1.8-0.9c-2,0.1-3.9-0.4-4.9-2.4c-1.3,0.3-3-0.8-3.8,1.2c-0.5,1.3-0.6,2.8-0.3,4.2c1.4,0.2,2.6,0.4,3.9,0.7
			c1.2,0.3,2.5,0.2,3.7-0.2c1.4-0.5,2.8-0.7,4.3-0.6c1.6,0.3,3.2,0.3,4.9,0.1c1.3-0.3,2.7,0,3.7,0.9c1.2,1.3,2.9,2.1,4.6,2.3
			c2,0.3,2.9,1.6,3.1,3.6c0.1,1.2,0.3,2.4,0.6,3.6c0.7,2.1,0.3,4.5-1,6.3c0,0,0,0.1,0,0.2l6.5-1.3c0.2-1.1,0.1-2.2,0.6-3
			c1.2-1.7,2.5-3.2,4-4.6c0.8-0.8,1.3-1.7,1.5-2.8c-1.1,0-2.2,0.1-3.2,0c-0.8-0.1-1.7-0.4-2.5-0.4c-1.8-0.1-3.5,0-5.3-0.1
			c-1.1,0-2-0.8-2.1-1.9c0-0.1,0-0.3,0-0.4c1,0.1,2,0.1,2.9,0.3c2.8,0.4,5.8-0.5,8.4,1.1c0.4,0.1,0.8,0.2,1.2,0.3
			c0.6,0.2,1.2,0,1.4-0.6c0,0,0-0.1,0-0.2c0.5-1.1,1-2.1,1.6-3.1c0.6-1.1,1.7-1.8,3-1.9c1.5,0,1.9-1,2.7-2.1c-0.2,0-0.5-0.1-0.7-0.1
			c-1.9,0.1-3.4-0.4-4.3-2.3c-0.6-0.7-1.4-1.2-2.4-1.3c-2.3-0.2-4.5-0.8-6.5-1.9c-1.7-0.9-3.6-1.4-5.5-1.2c-1.9,0.1-3.8-0.1-5.6-0.4
			c-2-0.5-4-0.3-5.8,0.5c-1.7,0.7-3.5,0.8-5.3,0.2c-1-0.3-2.1-0.3-3.1,0.1c-1.2,0.7-2.2,1.5-3.2,2.5c-1,0.9-0.8,1.9,0.5,2.4
			c0.9,0.3,1.8,0.4,2.7,0.4c1.2-0.1,2.3,0.5,2.8,1.5c0.3,0.4,0.7,0.8,1.1,1C46.7,151.8,47.3,152,48.2,152.4L48.2,152.4z
			 M477.2,158.6l-0.3,0.2c0.3,0.8,0.6,1.6,1.1,2.3c1.2,1.4,2.4,2.7,3.7,4c1.2,1.2,1.8,2.4,1.1,4l6.9,1.4c0-0.1,0-0.1,0-0.2
			c-0.1-0.1-0.1-0.3-0.2-0.4c-1.1-1.5-1.4-3.5-0.8-5.3c0.3-1.2,0.5-2.3,0.6-3.5c0.4-2.9,1.3-3.8,4.1-4.4c1.1-0.2,2.1-0.7,2.9-1.4
			c1.3-1.3,3.1-1.9,4.9-1.6c1.1,0.2,2.3,0.2,3.4,0c1.8-0.4,3.8-0.3,5.5,0.4c0.9,0.3,1.8,0.5,2.8,0.4c1.5-0.1,3-0.6,4.8-0.9
			c0-1.1-0.1-2.2-0.2-3.3c-0.3-1.6-1.1-2.1-2.7-2c-0.4,0-0.9,0-1.3-0.1l0.2,0.3c-0.8,0.7-1.7,1.3-2.7,1.8c-0.9,0.2-1.9,0.3-2.8,0.4
			c-0.4,0-0.8,0.2-1.1,0.4c-1.7,2.1-2.2,2.3-4.9,1.2c0.7-0.4,1.4-0.6,2-1c0.5-0.2,0.9-0.6,1.2-1c0.5-1,1.5-1.6,2.6-1.5
			c1,0,2-0.2,2.9-0.5c1.1-0.4,1.3-1.4,0.5-2.3c-0.6-0.7-1.3-1.3-2-1.9c-1.1-1-2.7-1.4-4.2-0.9c-1.9,0.7-4.1,0.6-5.9-0.3
			c-1.6-0.6-3.3-0.8-4.9-0.4c-2,0.3-4,0.5-6.1,0.5c-1.9-0.1-3.8,0.3-5.5,1.2c-1.9,1.1-4.1,1.7-6.3,1.8c-1.3,0-2.5,0.7-3,1.9
			c-0.5,1.1-1.6,1.8-2.8,1.7c-0.6,0-1.2,0.1-2,0.1c0.8,1.2,1.5,2.1,3,2.2c1.1,0.2,2,0.9,2.7,1.7c0.7,1,1.3,2.1,1.8,3.2
			c0.3,0.4,0.7,0.6,1.1,0.6c0.7-0.1,1.4-0.3,2.1-0.5c1-0.3,2.1-0.6,3.2-0.7c2.5-0.2,5-0.2,7.5-0.3c-0.2,1.6-0.8,2.3-2.5,2.3
			s-3.6,0-5.4,0c-0.5-0.1-0.9,0-1.4,0.2C479.8,159.4,478.3,159.4,477.2,158.6L477.2,158.6z M202.7,67.4c-0.8,3.2-1.5,6.2-2.2,9.3
			c-1.5,7.3-3.4,14.5-5.6,21.7c-0.2,0.5-0.3,1-0.3,1.5c0,2.7,0,5.4,0.1,8c0,2.2,0.2,4.3,0.3,6.6l5.3-0.4c0.1-0.2,0.2-0.6,0.4-0.9
			c1.3-2.3,2.6-4.7,4.1-6.9c0.8-1.1,1.4-2.3,1.6-3.6c0.5-2.5,1.1-4.9,1.5-7.4c1.2-7.1,2.4-14.3,3.6-21.4c0-0.4-0.2-0.8-0.5-1
			c-2.5-1.7-5.1-3.4-7.6-5.1C203,67.5,202.8,67.4,202.7,67.4L202.7,67.4z M338.7,73.2c1.6,9.1,3.3,18.2,4.9,27.3
			c0.4,2.4,0.9,4.7,2.7,6.5c0.5,0.6,0.9,1.2,1.2,1.9c0.9,1.7,1.9,3.4,2.7,5.1l5,0.4c0.1-0.1,0.1-0.3,0.1-0.4
			c0.1-4.8,0.3-9.7,0.4-14.5c0-0.3-0.1-0.6-0.2-0.9c-3.2-9.5-5.1-19.3-7.4-29c-0.2-0.7-0.4-1.4-0.5-2.2L338.7,73.2z M71.7,171.2
			c-0.8-0.2-1.5-0.5-2.2-0.8c-0.6-0.3-1.3-0.3-1.9,0c-3.4,1.2-6.8,2.4-10.3,3.6c-1,0.3-2.1,0.1-3-0.5c-1.9-1.2-3.8-2.3-5.7-3.3
			c-2.7-1.4-6-0.4-7.4,2.3c-0.3,0.6-0.5,1.2-0.6,1.9c-0.4,3,1.2,4.9,4.2,5.1c1.3,0.1,2.7-0.1,4.1,0c1.9,0,2.8,1.2,2.2,3
			c-0.5,1.4-1.3,2.7-1.8,4.1c-0.4,1.1-0.7,2.3-0.9,3.6c-0.1,1.5,1.2,3.5,2.5,3.8c2,0.4,4.4,0.4,5.4-1.1c1.3-2,2.6-4,2.8-6.4
			c0-2.1,1.6-3.8,3.7-4c0.6-0.1,1.2-0.2,1.8-0.3l8-1.2c0.3-0.1,0.6-0.2,0.8-0.3c-1.3-1.6-1.1-3.9,0.3-5.3
			C72.4,174.3,71.4,173.1,71.7,171.2L71.7,171.2z M476.6,180.6c0.2,0.2,0.4,0.3,0.5,0.3c2.7,0.4,5.3,1,8,1.3c4.1,0.4,5,1.1,6,5
			c0.6,2.1,1.6,4,2.8,5.8c1.3,2,5.3,1.8,6.8-0.1s1.3-3.8,0.4-5.8c-0.6-1.4-1.4-2.8-2-4.2c-0.8-2.2,0.2-3.4,2.5-3.4
			c1.4,0,2.7,0.1,4.1,0c1.8,0,3.4-1.2,3.7-3c0.6-2.1-0.2-4.4-2-5.8c-1.7-1.3-4-1.5-5.9-0.4c-1.9,1-3.8,2-5.6,3.2
			c-0.9,0.7-2.2,0.9-3.3,0.5c-3.5-1.2-6.9-2.5-10.4-3.7c-0.3-0.2-0.7-0.2-1-0.1c-0.9,0.3-1.8,0.7-2.8,1.1c0.3,1.8-0.6,3.1-2.2,4
			C477.7,176.6,477.9,179,476.6,180.6L476.6,180.6z M194.4,95.5h0.2c1.3-5.9,2.6-11.8,3.9-17.8c0.7-3.6,1.3-7.2,1.9-10.7
			c0.1-1,0.8-1.7,1.8-1.8c1.8-0.3,3.6-0.7,5.4-1c0.6-0.1,0.9-0.3,1-1c0.4-3,0.9-6.1,1.4-9.1c0.1-0.9,0.3-1.8,0.5-2.8l-9.7,1.8
			c-0.7,5.8-1.3,11.6-2.1,17.4c-0.8,5.5-1.7,11-2.6,16.4c-0.1,0.4-0.3,0.8-0.5,1.1l-0.3-0.1c0.5-5.9,0.7-11.8,1.4-17.6
			s1.8-11.6,2.7-17.5l-7.2-3c-1,4.7-2.1,9.4-3.1,14.1c-0.6,2.5-0.7,5.2-2.5,7.4c1.6,0.3,3.1,0.7,4.6,1c1.1,0.2,1.9,1.2,1.8,2.3
			c0.2,3.6,0.4,7.1,0.7,10.7S194.2,92.1,194.4,95.5L194.4,95.5z M339.9,51.4c0,0.3,0,0.5,0,0.8c0.6,3.7,1.2,7.3,1.8,11
			c0.1,0.9,0.5,1,1.2,1.1c1.5,0.2,2.9,0.6,4.4,0.7c2,0.2,2.7,1.4,3,3.2c1,5.4,2,10.8,3.1,16.2c0.7,3.7,1.6,7.3,2.4,11
			c0.6-6.4,1-12.7,1.5-19c0.2-3.5-0.5-3.8,4.2-4.7c0.8-0.2,1.5-0.3,2-0.4c-0.6-1.3-1.1-2.6-1.5-4c-0.9-3.8-1.6-7.7-2.4-11.5
			c-0.5-2-1-4-1.6-6l-7.1,3c0.7,4,1.5,7.8,2.1,11.7s1,7.8,1.3,11.7s0.5,7.8,0.8,11.7h-0.4c-2.6-11.5-3.6-23.3-5.2-35L339.9,51.4z
			 M393.3,84.8c0.9-0.1,1.7-0.3,2.6-0.5c0.4-0.1,0.6-0.4,0.7-0.8c0.4-2.2,0.6-4.4,0.7-6.6c0.1-6.7,0.1-13.3,0.2-20
			c0-0.6-0.1-1.1-0.3-1.6c-1.2-4.1-2-8.4-2.4-12.7c-0.1-1.8-0.5-3.6-0.7-5.3l-3.9,1.9c-0.8,0.3-1.5,0.7-2.2,1.2
			c-0.3,0.2-0.4,0.6-0.4,0.9c1,6.5,2.1,12.9,3.1,19.4c0.6,3.9,1,7.8,1.4,11.7C392.6,76.4,392.9,80.5,393.3,84.8L393.3,84.8z
			 M156.8,84.8c0.6-5.3,1.4-10.4,1.8-15.6c0.9-9.4,2.3-18.7,4-28c0-0.3-0.1-0.6-0.3-0.8c-2.1-1.1-4.2-2.1-6.3-3.1
			c0,0.1-0.1,0.2-0.1,0.3c-0.7,4.8-1.4,9.6-2.2,14.4c-0.2,1.6-1,3.2-1.1,4.8c-0.1,4.7-0.2,9.3,0,14c0.1,4.2,0.5,8.3,0.8,12.4
			c0,0.3,0.2,0.9,0.5,0.9C155,84.4,155.9,84.6,156.8,84.8L156.8,84.8z M182.8,111.4c0-0.5,0-0.8,0-1c-0.1-4.7-0.4-9.4-0.4-14.1
			s0.1-9.6,0.1-14.4c0-2.6,0-2.7-2.2-3.6c-0.4-0.2-0.7-0.3-1.1-0.5l-5.7-2.4c-0.1,3.8-0.2,7.6-0.5,11.4c-0.1,1.7-0.5,3.4-0.7,5.2
			c-0.1,0.3-0.1,0.6,0,0.9c0.9,4.8,2.1,9.4,5,13.5C178.7,108.5,180.6,110.2,182.8,111.4L182.8,111.4z M367.6,111.3
			c2.3-1.2,4.2-3,5.6-5.2c2.1-3.2,3.5-6.9,4.2-10.6c0.3-1.7,0.8-3.4,0-5.1c-0.1-0.4-0.2-0.8-0.2-1.2c-0.2-4.4-0.3-8.7-0.5-13.1
			c0-0.3,0-0.5-0.1-0.8c-2.3,1-4.6,2-6.9,2.9s-2.2,0.9-2.2,3.2c0,0.2,0,0.3,0,0.5c0,6.7,0,13.4-0.1,20.1
			C367.6,105.1,367.6,108.2,367.6,111.3L367.6,111.3z M59.5,5c0,0.5,0.1,0.8,0.1,1.1c0.8,4.7,1.7,9.3,2.3,14
			c1,7.4,1.7,14.9,2.5,22.4c0,0.4,0.4,1.2,0.7,1.2c1.3,0.1,2.5,0,3.8-0.2c0.8-0.2,1.4-1,1.2-1.9c0,0,0,0,0-0.1
			c-0.9-10.5-1.7-21-2.7-31.5c-0.2-2-0.5-4-0.8-6.2C64.4,5.1,61.9,5.5,59.5,5z M490.8,5c-2.4,0.5-4.8,0.1-6.9-1.2
			c-0.1,0.5-0.2,0.9-0.3,1.3c-0.4,3.2-0.9,6.4-1.2,9.6c-0.8,8.8-1.4,17.6-2.1,26.4c-0.1,1.6,0.4,2.4,2,2.6c0.8,0.1,1.6,0.1,2.4,0
			c0.4,0,1-0.4,1-0.7c0.5-2.5,0.9-5,1.2-7.4c0.8-7.1,1.5-14.2,2.4-21.3C489.7,11.2,490.2,8.2,490.8,5L490.8,5z M360.2,76.9
			c-1.3,12.5-1.9,25.1-1.6,37.7l6-1.7l2-33.4L360.2,76.9z M191.7,114.6c0.3-12.6-0.3-25.2-1.6-37.7l-6.5,2.6l2.1,33.4L191.7,114.6z
			 M376,49.4c2.5,0.8,5.1,1.5,7.6,2.3c2,0.7,2.1,0.8,2.1,2.9c-0.1,7,0.3,14,1,20.9c0.4,3.1,0.4,6.2,0.6,9.3h3.5
			c-1.2-14.8-2.2-29.5-4.4-43.8l-8.4-3.4C378.5,42,377,45.7,376,49.4L376,49.4z M172.4,37.7l-8.4,3.4c-2.2,14.5-3.2,29.2-4.4,43.8
			h3.5c0.2-3.2,0.3-6.2,0.5-9.2c0.3-3.7,0.7-7.5,0.9-11.2c0.2-3.4,0.2-6.9,0.2-10.3c-0.1-1.1,0.6-2.2,1.8-2.3c2.4-0.6,4.8-1.3,7.1-2
			c0.3-0.1,0.6-0.2,0.8-0.3C173.2,45.7,171.8,42,172.4,37.7L172.4,37.7z M415,49.6c-1.3,0.5-2.5,1-3.8,1.5c-1.1,0.4-2.2,0.7-3.3,1
			c-0.8,0.2-1,0.8-0.9,1.5c0.3,7.9,0.1,15.8-0.6,23.6c-0.2,1.8-0.3,3.6-0.4,5.6l6.4-1.2c0.2-4.1,0.3-8,0.6-11.9
			c0.6-6.5,1.3-12.9,2-19.3C415,50.2,415,49.9,415,49.6L415,49.6z M144.3,82.9c-0.3-3.8-0.7-7.3-0.8-10.8
			c-0.2-6.2-0.2-12.4-0.2-18.6c0-0.7-0.1-1.1-0.8-1.3c-1.2-0.3-2.4-0.7-3.5-1.1s-2.4-1-3.7-1.5c0.2,3.3,0.4,6.6,0.8,9.9
			c0.9,7.1,1.9,14.2,1.9,21.5c0.1,0.3,0.3,0.6,0.6,0.8C140.4,82.1,142.3,82.5,144.3,82.9L144.3,82.9z M171.1,87.6h0.4
			c0-3.9,0-7.8,0-11.7c0-2-0.1-2,1.8-2.8c0.4-0.2,0.7-0.6,0.8-1c0.2-4.5,0.3-9.1,0.5-13.6c0-0.7-0.1-1.1-0.8-1.3
			c-1.2-0.4-2.4-0.7-3.5-1.1s-2-1-3.3-1.6c0.4,10.3-1,20.3-2.1,30.5c1.3,0,2.6,0,3.8,0c1.1-0.1,2,0.7,2.2,1.8
			C170.9,87,171.1,87.3,171.1,87.6L171.1,87.6z M383.2,54.6c-2.2,0.8-4.1,1.5-6.1,2.1c-1,0.1-1.7,1.1-1.6,2.1c0,0,0,0.1,0,0.1
			c0.3,4.2,0.4,8.4,0.5,12.6c0,0.9,0.2,1.4,1.1,1.6c1.3,0.2,1.6,1,1.6,2.3c-0.1,3.9,0,7.9,0,11.8h0.4c0.9-2.5,0.9-2.5,3.6-2.6
			c0.9,0,1.8-0.1,2.6-0.1C384.2,74.6,382.9,64.6,383.2,54.6L383.2,54.6z M348.7,158.4c-0.5,1.6-1.9,2.7-3.6,2.8
			c-1.8,0.4-3.7,0-5.3-0.9c-0.4-0.4-1-0.4-1.4,0c-0.1,0.1-0.1,0.1-0.1,0.2c-0.4,0.4-0.8,0.8-1.1,1.2c-0.8,1.1-1.9,1.8-3.2,2.1
			c-2.5,0.6-5.2-0.3-6.8-2.4c-0.4-0.5-0.8-0.9-1.4-1.5c-0.7,2.2-2.4,3.1-4.1,3.8s-3.3,1.5-5.2,2.3c0.9,0.1,1.9,0.2,2.8,0.4
			c4,1.1,8.2,1.5,12.3,1.2c7.6-0.3,15.1-0.9,22.3-3.6c0.7-0.3,1.4-0.7,2-1.2L348.7,158.4z M201.6,158.4c-1.2,0.7-2.3,1.4-3.5,2.1
			s-2.2,1.4-3.3,2.1c3.5,3.6,26.5,7.1,39.1,3.2c-1.3-0.6-2.4-1-3.5-1.5c-2.1-1-4.5-1.6-5.5-4.1c0,0-0.1-0.1-0.4-0.2l-1.4,1.5
			c-2.8,3.1-7.6,3.1-9.8,0.2l-1.6-2.1C207.4,162.4,202.6,161.4,201.6,158.4L201.6,158.4z M330.4,38.8l-5.3,3.2c-1.6,1-1.6,1-1.2,2.8
			c1.7,6.6,3.4,13.2,5.1,19.8c0.3,1.1,0.6,2.2,1,3.3c0.9-0.5,1.6-1,2.4-1.4s2.3-0.7,2.6-1.4s-0.2-2.1-0.4-3.1
			C333.1,54.3,331.8,46.5,330.4,38.8L330.4,38.8z M219.7,38.8c-0.4,2.8-0.8,5.4-1.3,8.1c-1,5.8-2.1,11.6-3.1,17.3
			c-0.2,0.9,0,1.4,1,1.8c1.4,0.5,2.7,1.3,4.1,1.9c0.1-0.1,0.1-0.3,0.2-0.4c1.1-4.1,2.1-8.1,3.2-12.2c1-3.8,1.9-7.6,2.9-11.4
			c0.1-0.5,0-0.9-0.3-1.3C224.1,41.3,221.9,40,219.7,38.8L219.7,38.8z M400.1,48.9l-0.3,0.2c0.2,11.5,0.8,23-0.5,34.5
			c1.1-0.1,2.1-0.2,3.1-0.2s1.2-0.3,1.3-1.2c0.4-7.2,0.9-14.3,1.3-21.5c0.1-2.5,0.3-5,0.5-7.5c0-0.3-0.1-0.6-0.4-0.8
			C403.5,51.2,401.8,50.1,400.1,48.9L400.1,48.9z M150.9,83.6c-1.3-11.6-0.7-23.1-0.5-34.9c-2,1.4-3.7,2.6-5.4,3.8
			c-0.2,0.2-0.2,0.6-0.2,0.9c0.1,1.4,0.4,2.8,0.4,4.3c-0.1,7.7,0.3,15.4,1.2,23c0.3,3.2-0.2,2.6,2.9,2.8
			C149.8,83.5,150.2,83.5,150.9,83.6L150.9,83.6z M184.5,39.6l3.5,18c0.9-2.8,1.7-5.7,2.3-8.6c0.3-1.7,0.4-1.9,2.1-2.2
			c1.1-0.2,2.1-0.5,3.4-0.7c-0.5-2.5-1-4.7-1.3-7s-0.4-4.5-0.5-7C190.2,34.3,187,36.5,184.5,39.6L184.5,39.6z M356.9,32.1l-0.5,0.3
			c-0.2,2.3-0.2,4.5-0.5,6.8s-0.8,4.5-1.3,6.9c1.4,0.3,2.6,0.6,3.7,0.7s1.5,0.7,1.8,1.9c0.6,3,1.4,5.9,2.1,8.9h0.2l3.5-18.5
			L356.9,32.1z M194.2,163.8c0.1,2.4,2,4.4,4.7,5.3c4.5,1.2,9.2,1.9,13.9,2.1c4.9,0.3,9.7-0.7,14.6-0.2s10-0.7,15.2-1.8l-7.6-2.6
			c-0.6,0.4-1.2,0.7-1.9,0.9c-4,0.3-8,0.6-12.1,0.8c-3.1,0.1-6.2-0.2-9.3,0.1c-2.6,0.3-5.3,0.2-7.9-0.2
			C200.3,167.5,196.9,166,194.2,163.8L194.2,163.8z M356,163.5c-0.3,0.5-0.7,0.9-1.1,1.2c-4.2,2.6-9.1,3.9-14,3.7
			c-2.9,0-5.7-0.2-8.6-0.3c-5-0.2-10-0.5-15.1-0.8c-0.7-0.2-1.3-0.5-1.8-0.9l-7.5,2.5c2.7,0.7,5.5,1.3,8.3,1.6
			c2.9,0.3,5.9,0.2,8.9,0.2c1.3-0.1,2.7-0.2,4-0.1c6.1,0.9,12.2,0.2,18.3-0.6c1.6-0.3,3.2-0.7,4.7-1.3
			C354.3,168.1,355.9,166,356,163.5L356,163.5z M329.3,93.7c-2.2-5.3-3.4-10.9-3.5-16.7c-0.1-0.5-0.4-0.9-0.8-1.1
			c-2-0.6-4-1-6.1-1.5c-0.1,0.3-0.1,0.5-0.1,0.8c0.3,3.7,0.6,7.3,1,11c0.1,0.4,0.4,0.6,0.7,0.8c2.2,0.9,3.9,2.3,4.1,4.8L329.3,93.7z
			 M231.6,74.7c-0.6,0.1-1,0.2-1.4,0.3c-1.6,0.3-3.2,0.6-4.7,0.9c-0.7,0.2-1,0.6-1,1.4c0,4.4-0.8,8.9-2.2,13.1
			c-0.4,1.1-0.7,2.1-1.1,3.3l4.6-1.8c0.2-2.4,1.8-3.8,3.8-4.7c0.6-0.2,1-0.7,1-1.4c0.1-1.8,0.3-3.6,0.4-5.4S231.3,76.7,231.6,74.7
			L231.6,74.7z M341.1,46.7c-0.5-1.8-1.1-3.5-1.5-5.2c-0.4-2.2-0.3-2.3-2.6-2.6c-1.9-0.3-3.8-0.4-5.8-0.5c0.7,1.7,1.3,3.4,1.8,5.1
			c1.2,5.3,2.5,10.6,2.6,16c0.2,1.7,0.5,3.5,0.9,5.2l2.4-0.9c-0.8-4.5-1.5-8.9-2.3-13.4c-0.2-1.5,0-2.1,1.4-2.6
			C339.2,47.3,340.2,47,341.1,46.7L341.1,46.7z M213.7,64.7c1.4-8.9,1.6-17.9,5.4-26.4c-2.7,0.3-5.1,0.5-7.4,0.9
			c-0.3,0-0.7,0.6-0.8,1c-0.3,2.3-0.6,4.5-2,6.5c1.1,0.4,2.1,0.7,3.1,1c1.6,0.6,1.8,1.2,1.5,2.9c-0.8,4.4-1.5,8.8-2.2,13.2
			L213.7,64.7z M217.3,71.2l-0.3-0.3c-1.3,0.7-2.6,1.4-3.9,2.2c-0.1,0.1-0.2,0.3-0.2,0.5c-0.4,2.7-0.8,5.4-1.2,8
			c-0.9,5.8-1.9,11.7-2.8,17.5c-0.1,0.8-0.2,1.7-0.4,2.7c1.2-0.9,2.2-1.6,3.2-2.3c0.2-0.2,0.4-0.4,0.4-0.7c0.4-1.6,0.7-3.2,1-4.8
			c1.1-5.6,2.1-11.2,3.1-16.8C216.6,75.2,216.9,73.1,217.3,71.2L217.3,71.2z M341.8,101.8c-0.1-0.6-0.1-1-0.1-1.4
			c-0.6-3.3-1.2-6.7-1.7-10c-0.9-5.5-1.7-11-2.5-16.6c0-0.2-0.1-0.6-0.2-0.6c-1.3-0.8-2.6-1.5-3.9-2.2c-0.1,0.6-0.1,1.3,0,1.9
			c1.6,8.7,3.3,17.4,4.9,26.1c0,0.2,0.1,0.4,0.2,0.5C339.4,100.1,340.5,100.9,341.8,101.8L341.8,101.8z M173.6,37.3
			c0.1,0.4,0.2,0.9,0.3,1.3c1,2.9,2,5.8,3,8.7c0.2,0.9,0.4,1.9,0.5,2.9l7.1,1.3c-0.5-3.8-1-7.5-1.4-11.1c-0.1-0.8-0.4-1.2-1.2-1.2
			c-2.4-0.1-4.9-0.6-7.1-1.6C174.3,37.3,174,37.3,173.6,37.3L173.6,37.3z M365.8,51.4l7.1-1.3c0.1-0.9,0.2-1.8,0.4-2.7
			c1-3,2-6,3.1-9c0.1-0.4,0.1-0.7,0.2-1.1c-0.3,0-0.4-0.1-0.5,0c-2.5,1.1-5.2,1.7-7.9,1.8c-0.8,0-0.8,0.6-0.9,1.2
			C366.8,43.9,366.3,47.6,365.8,51.4L365.8,51.4z M176.3,57.1v15c1.3-0.6,2.7-1,4.1-1.4c1.4-0.3,1.7-1.3,1.7-2.4
			c0.1-2.6,0.3-5.1,0.5-7.6c0.1-1.9,0.4-3.7,0.7-5.8L176.3,57.1z M374,72.1V57.1l-7-2.3c0.1,1.2,0.3,2.1,0.3,3.1
			c0.2,2.4,0.4,4.8,0.6,7.3c0.1,1.5,0.3,3,0.5,4.5c0,0.2,0.2,0.4,0.4,0.5C370.4,70.8,372.1,71.4,374,72.1L374,72.1z M216.9,96
			l0.2,0.2c0.6-0.6,1.5-1.1,1.7-1.8c0.8-2.4,1.4-4.8,1.8-7.3c0.6-3.4,1-6.9,1.4-10.3c0-1.3,0.9-2.4,2.1-2.8c0.5-0.2,1-0.5,1.3-0.9
			c1.2-2.5,2.3-5.1,3.4-7.6l-4.7-1.9c-0.2,0.9-0.4,1.7-0.7,2.6c-0.7,1.7-1.3,3.5-1.7,5.3c-0.9,4.6-1.6,9.3-2.5,13.9
			C218.4,89,217.6,92.5,216.9,96L216.9,96z M333.6,96.2c-0.5-2.1-1.1-4-1.5-5.9c-1.8-7.7-2.1-15.7-4.9-23.2
			c-0.4-1.1-0.7-2.2-0.9-3.3l-4.8,1.9c1,2.3,2.1,4.5,3,6.8c0.3,0.8,0.9,1.5,1.7,1.8c1.2,0.3,2,1.4,2,2.7c0.2,2.6,0.5,5.3,0.9,7.8
			c0.6,3.1,1.5,6,2.1,9.1C331.6,95.2,332.3,95.7,333.6,96.2L333.6,96.2z M354.1,35.9l-9.3,2.9v7.1c2.4-1.3,5.2-1.5,7.7-0.5
			L354.1,35.9z M205.4,45.9c0-2.3,0-4.3,0-6.3c0.1-0.5-0.3-1.1-0.8-1.2c0,0,0,0-0.1,0c-1.8-0.5-3.5-1.1-5.3-1.6
			c-1-0.3-1.9-0.6-3.2-0.9l1.6,9.5C200.2,44.3,203.1,44.5,205.4,45.9L205.4,45.9z M357.6,30.5c2.5,1.9,4.8,3.4,6.8,5.2
			c1.3,1.2,2.4,1.9,4.2,1.5c2-0.5,4.1-0.6,6.5-0.9c-0.2-0.4-0.5-0.8-0.8-1.1c-1.6-1.2-3.1-2.4-4.7-3.5c-0.5-0.3-1-0.4-1.6-0.4
			c-2.4-0.2-4.8-0.3-7.3-0.5C359.9,30.7,358.9,30.6,357.6,30.5L357.6,30.5z M192.4,30.9l-0.1-0.3c-0.9,0.1-1.7,0.1-2.6,0.2
			c-1.5,0.2-3.1,0.8-4.6,0.5c-3.3-0.6-5.6,0.8-7.9,2.8c-0.4,0.4-0.9,0.7-1.3,1c-0.3,0.4-0.6,0.8-0.9,1.2c3.1,0.4,5.8,0.8,8.5,1.1
			c0.3,0,0.7-0.3,1-0.6c1.9-1.5,3.7-3,5.6-4.5C190.8,31.8,191.6,31.4,192.4,30.9L192.4,30.9z M212,32.2v-0.3
			c-3.6-0.3-7.2-0.6-10.8-0.9c-0.2,0-0.4,0.1-0.5,0.2c-1.3,1.2-2.6,2.5-3.9,3.7c3-0.2,5.6,0.8,8.3,1.5c1,0.4,2.1,0.1,2.9-0.6
			C209.2,34.5,210.6,33.4,212,32.2L212,32.2z M337.9,31.9c1.7,1.5,3.2,2.8,4.7,4c0.6,0.4,1.4,0.6,2.2,0.5c2.9-0.6,5.6-1.7,9-1.3
			c-0.7-0.6-1.4-1.2-2.1-1.9c-1.2-1.8-3.3-2.6-5.3-2.1C343.8,31.5,341,31.6,337.9,31.9L337.9,31.9z M275,80.2
			c1.8-0.2,3.5-0.4,5.1-0.8c0.6-0.2,1.1-0.7,1.2-1.3c-0.1-0.6-0.6-1.2-1.1-1.5c-0.9-0.4-1.9-0.7-2.8-0.9c-2.7-0.9-5.1,0.1-7.5,1.1
			c-0.5,0.3-0.8,0.8-0.9,1.4c0.1,0.6,0.6,1,1.1,1.2C271.7,79.7,273.4,79.9,275,80.2L275,80.2z M156.7,35v0.5
			c0.3,0.2,0.5,0.3,0.8,0.5c1.9,0.8,3.8,1.6,5.8,2.2c0.6,0.1,1.2,0,1.7-0.3c2-0.8,3.9-1.6,5.9-2.4c0.5-0.2,1-0.3,1.6-0.5
			c-0.2-0.1-0.4-0.2-0.6-0.3l-7.6-1.8c-0.2,0-0.4,0-0.6,0L156.7,35z M393.6,35.6c-2.3-1.7-4.8-2.1-7.3-2.7c-0.2,0-0.5,0-0.7,0.1
			l-6.3,1.5c-0.5,0.1-1,0.2-1.5,0.4c0.8,0.5,1.7,0.8,2.6,1.1c0.9,0.3,1.8,0.6,2.7,1.1c1.8,1.4,4.2,1.4,6.1,0.2
			C390.7,36.5,392.1,36,393.6,35.6L393.6,35.6z M414.5,48.8v-0.5l-2.5-1.5c-1.6-1-3.3-1.8-5.2-0.7c-0.6,0.2-1.2,0.3-1.9,0.4l-4,0.8
			c1.6,1.1,3.2,2,4.5,3.2c0.7,0.6,1.6,0.7,2.4,0.3c1-0.4,2.1-0.6,3.1-0.9C412.1,49.5,413.3,49.2,414.5,48.8L414.5,48.8z M135.5,48.5
			c1.2,0.5,2.2,1,3.2,1.3c1.4,0.4,2.8,0.8,4.2,1.1c0.4,0.1,0.9,0.2,1.2,0c1.7-1.2,3.4-2.4,5.2-3.6c-2-0.3-4-0.7-6-1.3
			c-1.4-0.6-3.1-0.4-4.4,0.4C137.9,47.1,136.8,47.7,135.5,48.5L135.5,48.5z M360.9,74.9c2,0.9,4,1.8,5.9,2.6c0.4,0.1,0.8,0.1,1.1,0
			c2.2-0.7,4.3-1.4,6.5-2.1c0.4-0.2,0.7-0.4,1-0.6c-2.4-0.8-4.5-1.5-6.6-2.2c-0.2-0.1-0.4-0.1-0.6,0L360.9,74.9z M175,74.7V75
			c0.5,0.2,1,0.5,1.5,0.6c1.3,0.5,2.7,0.8,3.9,1.4c1.6,0.8,3.4,0.7,4.9-0.2c1-0.6,2.2-1,3.2-1.5c0.2-0.1,0.4-0.2,0.6-0.4l-7.1-2.3
			c-0.2-0.1-0.4-0.1-0.6,0C179.3,73.3,177.2,74,175,74.7L175,74.7z M210.2,154.6c-1.3,0.2-2.6-0.4-3.2-1.6c-0.1-0.6-0.1-1.2,0-1.8
			l3.7,2.4c0-0.5,0.1-1,0-1.2c-1.3-1-1.7-2.8-0.9-4.3l-6.8,3.4l3.9,2.9v0.6l-3,1.2c0.5,0.5,1,1.4,1.6,1.5c1.4,0.2,2.9,0.2,4.3,0.1
			c0.2,0,0.6-0.5,0.7-0.7C210.3,156.2,210.3,155.4,210.2,154.6L210.2,154.6z M347.4,151.6l-6.8-3.4c0.8,1.4,0.5,3.2-0.8,4.2
			c-0.2,0.2-0.1,0.7-0.2,1.2c0.9-0.5,1.5-0.8,2-1.1s1-0.8,1.5-1.2c1,1.8-0.2,3.1-3,3.4c0,0.7,0,1.4,0,2.1c-0.1,0.8,0.3,1,0.9,1.1
			c1.1,0,2.1,0.1,3.2,0c1.5-0.1,1.9-0.4,2.1-1.7l-2.7-1.2v-0.5L347.4,151.6z M293.6,79.3c-0.7,0.1-1.4,0.2-2.1,0.3
			c-0.5,0.2-1,0.5-1.5,0.8c0.3,0.5,0.6,1.1,1,1.5c1.8,1.5,4,2.3,6.3,2.2c1.2-0.1,2.4-0.5,3.5-1.1c0.9-0.4,0.6-1.1-0.1-1.5
			C298.4,80.1,295.8,79.8,293.6,79.3L293.6,79.3z M257,79.3l-0.1-0.2c-2.3,0.7-4.6,1.3-6.8,2.1c-0.5,0.2-0.8,0.7-1.2,1.1
			c0.4,0.5,0.8,0.9,1.3,1.4c0.2,0.2,0.5,0.3,0.8,0.3c2.5,0.6,5.1,0.1,7.2-1.2c0.6-0.3,1.1-0.7,1.6-1.2c0.8-0.8,0.6-1.5-0.5-1.8
			C258.5,79.6,257.7,79.5,257,79.3L257,79.3z M322.6,91.3l0.2-0.5c-0.5-0.7-1.1-1.3-1.8-1.8c-1.4-0.7-2.8-1.3-4.2-1.8
			c-0.9-0.4-1.8-0.7-2.8-0.8c-0.8,0-1.5,0.3-2,0.9c-0.2,0.2,0.3,1.2,0.7,1.8c0.3,0.3,0.7,0.6,1.2,0.7c1.7,0.6,3.4,1.1,5.1,1.4
			C320.2,91.4,321.4,91.4,322.6,91.3L322.6,91.3z M227.5,91.2c0.5,0.1,1,0.2,1.5,0.2c2.8,0.1,5.4-1,8-1.9c0.5-0.2,0.9-0.6,1.1-1
			c0.4-0.3,0.5-1,0.2-1.4c-0.1-0.2-0.4-0.3-0.6-0.4c-0.5-0.3-1.1-0.3-1.7-0.2c-1.9,0.5-3.7,1.1-5.6,1.8
			C229.1,88.8,228,89.8,227.5,91.2L227.5,91.2z M194.6,48.9c4.6,3,9.3,1.5,14,0.4c0,0-0.1-0.2-0.1-0.2c-6.5-2.5-7.2-2.5-13.6-0.4
			C194.7,48.8,194.6,48.8,194.6,48.9L194.6,48.9z M341.5,49.3c4.9,1,9.6,2.6,14.2-0.5c-1.9-0.6-3.8-1.2-5.7-1.7
			c-0.5-0.1-0.9-0.2-1.4-0.1C346.4,47.8,344.1,48.5,341.5,49.3z M205.1,67c2.3,1.4,4.4,2.7,6.6,4c0.2,0.1,0.5,0.1,0.8,0
			c1.3-0.7,2.5-1.4,3.7-2C212.8,67.2,209.5,65.2,205.1,67L205.1,67z M345.1,66.9c-3.2-1.2-7.6-0.4-11.1,2.1c0.4,0.1,0.8,0.3,1.1,0.5
			c2.1,1.9,4.1,1.5,6.2-0.1C342.5,68.6,343.8,67.8,345.1,66.9L345.1,66.9z M364.6,71.1c0.4-0.3,1.4,0.1,1.3-1.2
			c-0.2-2.3-0.2-4.5-0.4-6.8c-0.2-2.5-0.4-4.9-0.6-7.3c-0.5,0.7-0.8,1.6-0.9,2.4c-0.4,2.1-1.2,4.2-0.5,6.5
			C363.9,66.8,364.3,68.9,364.6,71.1L364.6,71.1z M185.5,55.6c-0.1,0.3-0.2,0.6-0.2,0.9c-0.2,2.9-0.4,5.9-0.6,8.8
			c-0.1,1.3-0.1,2.7-0.3,4.1c-0.2,1.5-0.2,1.6,1.2,1.7c0.4-2.2,0.8-4.3,1.1-6.5c0.3-1,0.4-1.9,0.4-2.9
			C186.8,59.6,186.1,57.7,185.5,55.6L185.5,55.6z M168.6,53.6c3.4,2.2,8.9,2,11.8-0.3C176.6,51.6,172.2,51.7,168.6,53.6L168.6,53.6z
			 M369.8,53.2c3.9,2.7,7.8,2,12,0.4c-0.2-0.2-0.5-0.3-0.8-0.4c-1.9-0.5-3.9-1-5.8-1.4c-0.2,0-0.4,0-0.6,0L369.8,53.2z M342.2,43.7
			h0.2c0.2-1.5,0.4-2.9,0.5-4.4c0-0.5-0.1-0.9-0.5-1.3c-1.4-1.2-2.8-2.4-4.2-3.6c-0.4-0.4-0.9-0.7-1.5-1.2v3.3
			c0.6,0.1,1.1,0.2,1.7,0.3c2.2,0,2.7,0.5,3.1,3.1C341.8,41.2,342,42.4,342.2,43.7L342.2,43.7z M207.9,43.6h0.2
			c0.1-0.4,0.2-0.8,0.3-1.3c0.2-1.2,0.4-2.4,0.6-3.7c0.1-1,1-1.8,2.1-1.7c0.9,0,1.7-0.2,2.5-0.3v-3.3c-2.1,1.8-4.1,3.4-6.1,5.1
			c-0.1,0.2-0.2,0.4-0.2,0.6C207.5,40.5,207.7,42,207.9,43.6L207.9,43.6z M349.8,152l-1.9,3.6c1.6-0.4,3.1-0.6,4.5-1
			c0.9-0.3,0.8-1.1,0.6-1.8c-0.1-0.3-0.4-0.6-0.7-0.7C351.4,152,350.6,152,349.8,152z M200.5,152c-0.7,0-1.3,0-2,0
			c-0.4,0.1-1.1,0.3-1.2,0.6c-0.2,0.7-0.4,1.5,0.6,1.9c1.3,0.6,2.8,0.9,4.3,0.7L200.5,152z M230,66.2l-0.5-0.1l-2.1,6.6l0.2,0.2
			c0.5-0.3,1.5-0.5,1.5-0.9C229.5,70.1,229.7,68.1,230,66.2L230,66.2z M322.8,72.7l-2-6.6l-0.4,0.1c0.2,1.7,0.4,3.4,0.5,5
			C320.9,72.5,321.6,72.8,322.8,72.7L322.8,72.7z M485.5,2.3v0.3c1.4,0.8,3.2,0.9,4.7,0.3L485.5,2.3z M60.2,2.9
			c1.5,0.6,3.2,0.5,4.7-0.3V2.3L60.2,2.9z M134.7,80.7l2,0.4l-0.4-1.4L134.7,80.7z M413.6,81.2l2-0.5l-1.6-0.9L413.6,81.2z
			 M242.1,104c-1.4-0.3-2.7-0.8-4-1.4c-2.1-1.3-2-3.5,0.1-4.8c1.7-0.9,3.4-1.6,5.1-2.3c1.1-0.5,2.3-0.9,3.5-1.1c1-0.1,2.1,0,3,0.4
			c1.4,0.5,2.2,2,1.7,3.4c0,0.1-0.1,0.2-0.2,0.4c-0.6,1.3-1.5,2.4-2.6,3.3c-2,1.2-4.3,1.9-6.6,1.8L242.1,104z M241.7,101.3
			c2.3-0.4,4.6-0.7,6.8-1.2c1.1-0.3,1.9-1.3,1.9-2.5c-0.1-1.2-1.1-1.6-2-1.7c-3.7-0.6-6.9,0.9-9.9,2.9c-0.5,0.2-0.6,0.7-0.4,1.2
			c0.1,0.3,0.4,0.4,0.6,0.5C239.6,100.9,240.6,101.2,241.7,101.3L241.7,101.3z M308,103.7c-2.3,0-4.6-0.6-6.6-1.9
			c-1.2-0.8-2.1-2-2.6-3.3c-0.9-2.3,1.1-4.5,3.7-4.2c1.5,0.2,2.9,0.6,4.3,1.2c1.8,0.7,3.6,1.5,5.3,2.4c2,1.2,2,3,0.2,4.6
			C311.1,103.4,309.6,103.9,308,103.7L308,103.7z M308.6,101.3L308.6,101.3c0.7-0.1,1.3-0.2,2-0.3c0.6-0.3,1.1-0.7,1.6-1.1
			c-0.4-0.5-0.6-1.3-1.1-1.5c-1.9-0.9-3.8-1.7-5.8-2.3c-1.2-0.3-2.4-0.3-3.6,0c-0.7,0.1-1.6,0.8-1.7,1.3c0,0.8,0.3,1.6,0.9,2.3
			c0.3,0.4,0.8,0.6,1.2,0.6C304.3,100.7,306.4,101,308.6,101.3L308.6,101.3z M275.1,106c-2.6,0.3-5.2-0.7-6.9-2.6
			c-1-0.9-1-2.4-0.2-3.3c0.3-0.3,0.6-0.5,1-0.7c3.9-1.7,8.3-1.7,12.2,0c1.2,0.5,1.8,1.8,1.4,3.1c-0.1,0.3-0.3,0.6-0.6,0.9
			C280.2,105.3,278,106.4,275.1,106L275.1,106z M275.2,103.4c1.9,0.3,3.9-0.3,5.4-1.5c0.9-0.7,0.9-1.2-0.1-1.9
			c-1.5-1-3.3-1.5-5.1-1.4c-2-0.2-4,0.3-5.7,1.4c-1,0.8-1,1.2,0,2C271.3,103.2,273.3,103.7,275.2,103.4L275.2,103.4z M260.5,96.9
			c-0.7-0.1-1.3-0.2-2-0.3c-2.3-0.7-3.1-2.8-1.4-4.5c1.9-2,4.3-3.5,7-4.1c1.5-0.3,3,0.2,3.9,1.5c0.7,1.2,0.2,3.5-1.1,4.9
			C265.3,96,262.9,97,260.5,96.9L260.5,96.9z M260.3,94.5l0.1,0.3c1.7-0.6,3.4-1.2,5-1.9c1-0.6,1.4-1.8,1.1-2.9
			c-0.4-0.8-1.4-1.2-2.7-0.7c-1.5,0.5-2.9,1.1-4.4,1.7c-0.6,0.3-1.1,0.8-1.5,1.3c-0.9,1.1-0.6,1.7,0.8,2
			C259.3,94.4,259.8,94.5,260.3,94.5L260.3,94.5z M289.4,97c-3.3-0.2-6.2-1.9-7.1-4.5c-0.5-1.2-0.7-2.4,0.2-3.5c0.9-1,2.4-1.4,3.8-1
			c1.2,0.4,2.3,0.9,3.4,1.6c0.8,0.4,1.5,0.9,2.2,1.4c0.7,0.5,1.2,1.1,1.7,1.8c0.7,1,0.5,2.5-0.5,3.2c-0.2,0.1-0.4,0.2-0.6,0.3
			C291.4,96.6,290.4,96.8,289.4,97L289.4,97z M289.8,94.8l0.1-0.3c0.4,0,0.8,0,1.2-0.1c0.6-0.2,1.5-0.4,1.6-0.7
			c0-0.7-0.3-1.3-0.7-1.8c-1.8-1.8-4.2-2.4-6.6-2.8c-1.3-0.2-2,0.8-1.6,2.1c0.2,0.7,0.6,1.4,1.3,1.8
			C286.6,93.7,288.1,94.3,289.8,94.8L289.8,94.8z M219.5,187.2c-0.2,0.8-0.2,1.7-1.2,1.8s-1.3-0.8-1.3-1.7c0-0.8,0.2-1.6,0.4-2.3
			c0.2-0.7,0.9-0.7,1.2-0.1C219,185.6,219.3,186.4,219.5,187.2L219.5,187.2z M333.2,186.8c0,0.5,0,0.9-0.1,1.1
			c-0.4,0.4-0.7,0.8-1.2,1.1c-0.4-0.4-1-0.8-1-1.3c0-0.9,0.2-1.7,0.4-2.5c0.1-0.3,0.5-0.7,0.7-0.6c0.4,0.1,0.7,0.4,0.8,0.7
			C333.1,185.8,333.2,186.3,333.2,186.8L333.2,186.8z M335.4,183.7c0.8,0.8,1.1,2,0.9,3.1c-0.2,0.5-0.5,0.8-1,1c-0.3,0-1-0.6-1-1
			C333.9,185.6,334.3,184.4,335.4,183.7L335.4,183.7z M214.8,183.7c1.2,0.7,1.7,2.1,1.2,3.4c-0.2,0.3-0.6,0.8-0.9,0.8
			c-0.4-0.1-0.8-0.4-1-0.8C213.7,185.9,213.9,184.6,214.8,183.7L214.8,183.7z M339.9,182.8c0.2,1.1,0.4,2.2,0.5,3.3
			c0,0.4-0.5,0.8-0.8,1.2c-0.4-0.3-0.9-0.6-1.1-1C337.9,184.9,338.5,183.3,339.9,182.8C339.9,182.8,339.9,182.8,339.9,182.8
			L339.9,182.8z M210.3,182.7c1.6,0.9,2,3.2,1.1,4.2c-0.2,0.2-0.6,0.3-0.9,0.3c-0.3-0.2-0.6-0.5-0.6-0.9
			C210,185.2,210.2,184,210.3,182.7L210.3,182.7z M222,188.4V185c0.7,0.1,1.2,0.8,1.2,1.5C223.3,187.3,223.2,188.1,222,188.4z
			 M328.2,185.1v3.3c-1.2-0.3-1.2-1.1-1.1-1.9S327.3,185.1,328.2,185.1z M410.5,124.7c1,0.5,2.1,1,3,1.6c0.6,0.4,1,1.3,0.3,1.9
			c-0.7,0.7-1.4,0.1-1.8-0.4c-0.7-0.9-1.3-1.8-1.9-2.7L410.5,124.7z M409.5,158.3c0.9,0.5,1.8,1.1,2.6,1.8c0.5,0.5,0.8,1.2,0.1,1.8
			s-1.1-0.1-1.4-0.6c-0.5-0.8-1-1.7-1.6-2.6L409.5,158.3z M409.3,162.5c2,1.1,2.7,2.2,2.3,3.6C410,166.1,408.8,164.2,409.3,162.5
			L409.3,162.5z M410.2,119.9c0.2,0.1,0.5,0.2,0.7,0.3c1,1,2.1,2,3.1,3c0.2,0.2,0.2,0.8,0.3,1.1c-0.3-0.1-0.8-0.1-1-0.3
			c-1.1-1.2-2.2-2.5-3.4-3.8L410.2,119.9z M410.3,133.1c1.1,0.7,2.1,1.3,2.9,2c0.3,0.2,0.3,0.8,0.5,1.2c-0.4-0.1-1,0-1.2-0.2
			C411.5,135.4,410.3,134.8,410.3,133.1L410.3,133.1z M410.9,129.5c0.9,0.5,1.8,1,2.7,1.6c0.2,0.2,0.2,0.8,0.3,1.1
			c-0.4-0.1-0.9,0-1.1-0.2c-0.7-0.7-1.4-1.5-2.1-2.2L410.9,129.5z M410.1,155.1c1,1,2.1,1.9,3.1,2.9c0.1,0.1,0,0.6,0,0.8
			c-0.2,0-0.5,0-0.6-0.1c-1-1.1-1.9-2.2-2.9-3.3L410.1,155.1z M411,138.4c0.7,0.4,1.3,0.8,1.9,1.3c0.1,0.1,0,0.6,0,1
			c-0.3,0-0.7,0-0.9-0.2c-0.5-0.5-1-1.1-1.4-1.6L411,138.4z M140.2,125.1c-0.7,1-1.5,2-2.4,3c-0.2,0.3-1,0.1-1.5,0.1
			c0-0.5-0.2-1.1,0-1.5c0.8-1.3,2.2-1.6,3.5-1.8L140.2,125.1z M141.1,158.7c-0.6,1-1.1,2-1.8,2.9c-0.2,0.3-0.8,0.3-1.2,0.4
			c-0.1-0.5-0.4-1.1-0.2-1.4c0.9-0.8,1.8-1.6,2.8-2.3L141.1,158.7z M141,162.5c0.4,1.5-0.4,3.1-2,3.6c-0.1,0-0.2,0.1-0.3,0.1
			C138.2,164.7,138.9,163.5,141,162.5L141,162.5z M140.3,120.3c-1.2,1.4-2.4,2.7-3.7,4.1c-0.1,0.1-0.4,0.1-0.6,0.1
			c0-0.2-0.2-0.6-0.1-0.8c1.3-1.3,2.6-2.6,3.9-3.9L140.3,120.3z M139.8,133.2c0.1,1.4-1.5,3.1-3.3,3.2
			C136.7,134.3,138.6,134.2,139.8,133.2L139.8,133.2z M140.6,155.5c-1,1.1-1.9,2.2-2.9,3.2c-0.1,0.1-0.5,0.1-0.7,0.1
			c0-0.3-0.1-0.6,0-0.8c1-1,2.1-2,3.1-3L140.6,155.5z M139.4,129.9c-0.6,0.7-1.2,1.5-2,2.1c-0.2,0.2-0.7,0.1-1.1,0.2
			c0.1-0.4,0-1,0.3-1.1c0.8-0.6,1.7-1.1,2.6-1.5L139.4,129.9z M139.7,138.8c-0.6,0.6-1.1,1.3-1.7,1.9c-0.2,0.1-0.4,0-0.6-0.1
			c-0.1-0.3-0.2-0.7-0.1-0.9c0.6-0.5,1.3-1,1.9-1.4L139.7,138.8z M375.1,178.8c0.5,1.2,0.5,2.6,0.1,3.8c-0.2,0.3-0.5,0.5-0.8,0.6
			c-0.2,0-0.5-0.2-0.6-0.4C373.4,181.8,374.1,179.4,375.1,178.8z M366.9,180.7c-1-1.1-1-2.3-0.2-2.7c0.3-0.1,0.6-0.1,0.9-0.1
			c0,0.3,0,0.6,0,0.8C367.4,179.4,367.1,180,366.9,180.7L366.9,180.7z M371.4,178.4c0.1,1,0.4,2.1-0.3,3l-0.5-0.1l0.4-3.1
			L371.4,178.4z M175.1,178.8c1.1,0.6,1.8,3.2,1.3,4c-0.1,0.2-0.4,0.4-0.5,0.4c-0.3-0.1-0.7-0.3-0.8-0.6
			C174.6,181.3,174.6,180,175.1,178.8z M182.6,177.8c0.4,0.2,1,0.2,1.3,0.6c0.6,0.8,0.3,1.6-0.4,2.4l-1-2.5L182.6,177.8z
			 M179.4,178.3l0.4,3.1l-0.5,0.1c-0.8-0.9-0.4-2-0.4-3L179.4,178.3z M456.7,151.2c0.9,1.5,1.1,3.4,0.5,5.1
			c-0.5,0.9-1.6,1.3-2.6,0.8c-0.2-0.1-0.4-0.2-0.5-0.4c-0.8-0.8-1.6-1.7-2.3-2.6c-0.6-0.7-1.3-1.4-2-2c-0.7-0.4-1.4-0.6-2.1-0.8
			l-0.4,0.3c0.2,0.9,0.4,1.7,0.6,2.6c0.6,2,1.4,4,1.9,6c0.5,2.5-0.5,4.6-2,6.5c-0.8,1.1-2.1,1.6-3.4,1.2c-1.6-0.3-2.8-1.7-3-3.3
			c-0.1-2-0.1-4.1,0.1-6.1c0.1-1.7,0.4-3.3,0.5-5c0.1-1.2-0.5-2.4-1.6-2.9c0,0.9,0,1.7,0,2.4c0,1.3-0.3,2.6-1.7,3.1
			s-2.5-0.3-3.5-1.3c-1.3-1.5-2.2-3-1.4-5.3c0.3,0.4,0.5,0.8,0.7,1.2c0.6,0.9,1.2,1.7,1.8,2.5c0.5,0.4,1,0.8,1.6,1.1
			c0.2-0.6,0.5-1.3,0.7-1.9s0.1-1.1,0.3-1.6c0.4-1.3,1.4-1.5,2.4-0.5c1,1,1.4,2.5,1.1,3.9c-0.2,2.2-0.5,4.4-0.6,6.6
			c-0.1,1.7,0.7,3.4,2.1,4.4c1,0.9,1.7,0.8,2.5-0.3c1.4-1.6,1.8-3.8,1.3-5.9c-0.5-1.9-1-3.7-1.4-5.6c-0.2-1-0.6-2.3,0.5-3
			s2.1-0.1,3,0.5c1,0.8,1.9,1.6,2.7,2.5c0.8,0.8,1.6,1.5,2.5,2.2c1,0.7,1.6,0.4,1.7-0.8S456.7,152.3,456.7,151.2L456.7,151.2z
			 M431.5,165.5c0,0.7,0,1.5,0,2.2c0,1.4-0.1,2.9-0.3,4.3c-0.4,1.8-2.1,3-3.9,2.6c0,0,0,0-0.1,0c-1.8-0.2-3.1-1.8-3-3.6
			c0-0.6,0-1.2,0.1-1.9c0.6,1.3,2.5,2.6,3.7,2.3c0.6-0.2,1.1-0.7,1.3-1.3c0.4-1.3,0.5-2.7,0.9-4c0.2-0.6,0.6-1.5,1.1-1.7
			s1.2,0.4,1.8,0.8c0.4,0.4,0.8,0.9,1.2,1.3c0.3,0.3,0.6,0.5,1,0.7c0.2-0.4,0.6-0.7,0.6-1.1c0.2-1.6,0.2-3.1,0.3-4.6
			c0.7,1.7,0.9,3.6,0.6,5.4c-0.2,0.7-0.7,1.2-1.3,1.5c-0.7,0-1.4-0.2-1.8-0.7c-0.7-0.8-1.3-1.6-1.9-2.5L431.5,165.5z M116.5,149.7
			c0.6,2.6-0.6,5.3-3,6.5c-1.2,0.6-2.6,0.1-3.1-1.1c-0.1-0.2-0.2-0.4-0.2-0.6c-0.2-1.2-0.3-2.5-0.4-3.7c-1,0.5-1.5,1.5-1.4,2.6
			c0.1,1.8,0.4,3.6,0.5,5.4c0.2,1.9,0.2,3.8,0.1,5.7c-0.1,1.8-1.4,3.2-3.2,3.5c-1.8,0.4-2.9-0.7-3.9-2c-1.6-2.2-2-5.2-1.1-7.8
			c0.4-1.4,1-2.7,1.5-4c0.3-0.8,0.4-1.6,0.7-2.6c-1.1-0.3-2.3,0.1-3.1,0.9c-0.8,0.8-1.5,1.8-2.3,2.6c-0.6,0.7-1.3,1.3-2.1,1.9
			c-0.8,0.5-1.9,0.3-2.4-0.5c-0.1-0.2-0.2-0.5-0.3-0.8c-0.4-1.6-0.1-3.3,0.7-4.7c0,1.3-0.1,2.6,0,3.8s0.8,1.7,2,0.9
			c0.9-0.7,1.8-1.5,2.6-2.5c1-1.3,2.4-2.3,4-2.7c1.4-0.3,2.2,0.2,2.1,1.6c-0.1,1.2-0.3,2.4-0.6,3.5c-0.3,1.6-0.8,3.2-1.1,4.8
			c-0.3,1.8,0.3,3.6,1.6,4.9c0.7,0.9,1.4,0.9,2.3,0.2c2.2-1.7,2.4-4.1,2.1-6.6c-0.2-1.6-0.4-3.2-0.6-4.8c-0.2-1.3,0.2-2.6,1.1-3.5
			c0.3-0.4,1-0.8,1.4-0.6c0.5,0.3,0.9,0.7,1.1,1.2c0.1,0.7,0.3,1.4,0.3,2.1c0.1,0.5,0.3,0.9,0.6,1.2c0.2,0.1,0.8-0.2,1.1-0.5
			c0.8-0.9,1.5-1.8,2.2-2.8C115.9,150.7,116.1,150.2,116.5,149.7L116.5,149.7z M126.1,169.1c0,1-0.1,2-0.3,3c-0.5,1.9-2.4,3-4.3,2.5
			c-1.1-0.3-2-1.1-2.4-2.2c-0.3-1.4-0.4-2.8-0.4-4.2c-0.1-0.9,0-1.8,0-2.7l-0.3-0.1c-0.3,0.3-0.6,0.6-0.8,0.9c-0.3,0.5-0.6,1-1,1.4
			c-0.5,0.4-1.4,1-1.9,0.9c-0.7-0.4-1.2-1-1.5-1.8c-0.4-1.1,0.2-4,0.7-5.1c0.1,1.3,0.2,2.9,0.3,4.4c0.1,0.4,0.4,0.9,0.7,1.2
			c0.4-0.2,0.8-0.5,1.1-0.8c0.5-0.5,0.9-1.1,1.5-1.6c1.1-1,2.1-0.7,2.5,0.7c0.3,1.1,0.4,2.3,0.7,3.4c0.2,0.9,0.2,2.3,1.5,2.4
			c1.3,0.1,2.6-0.5,3.5-1.5C125.6,169.7,125.7,169.5,126.1,169.1L126.1,169.1z M510.8,124.6c-0.2,0.3-0.4,0.9-0.8,1
			c-0.5,0.1-1-0.1-1.3-0.4c-0.5-0.8-1-1.7-1.3-2.6c-0.1-0.4,0-0.7,0.3-1c0.3-0.2,0.7-0.2,1.1,0C509.9,122.2,510.6,123.3,510.8,124.6
			L510.8,124.6z M507.7,117c1.7,0.1,3.6,2.1,3.5,3.3c-0.1,0.3-0.3,0.6-0.5,0.8c-0.3,0.1-0.5,0-0.7-0.2
			C509.2,119.7,508.5,118.4,507.7,117z M508.5,113.2c1.6,0.6,3.2,2.4,3.1,3.6c0,0.3-0.2,0.6-0.5,0.8c-0.3,0.1-0.6,0-0.8-0.2
			C509.7,116,509.2,114.7,508.5,113.2z M509.9,88.2c0.3,0.1,0.6,0.1,0.8,0.3c0.8,1,1.6,2,2.3,3c0.2,0.3-0.1,0.8-0.1,1.2
			c-0.3-0.2-0.8-0.3-1-0.6c-0.8-1.2-1.5-2.5-2.2-3.7L509.9,88.2z M509.6,92.6c1.1,0.9,2.2,1.8,3.2,2.7c0.2,0.2,0.1,0.7,0,1
			c-0.2,0.2-0.5,0.2-0.7,0.2c-1.2-0.9-2.3-2-3-3.4L509.6,92.6z M509.2,97.1c1.3,0.3,3.3,2,3.4,2.9c0,0.3,0,0.5-0.2,0.7
			c-0.2,0.1-0.4,0.1-0.6,0C510.7,99.7,509.8,98.4,509.2,97.1L509.2,97.1z M509.7,101.8c0.8,0.6,1.6,1.3,2.3,2c0.3,0.3,0.2,1,0.2,1.6
			c-0.5-0.2-1.1-0.2-1.4-0.5c-0.6-0.9-1.1-1.8-1.5-2.8L509.7,101.8z M43.3,122.1c-0.8,1.3-1.3,2.4-2,3.3c-0.3,0.2-0.6,0.3-1,0.2
			c-0.4-0.3-0.6-0.7-0.7-1.1c0-1.4,0.9-2.7,2.3-3.1C42.3,121.4,42.7,121.8,43.3,122.1L43.3,122.1z M42.5,117.2
			c-0.7,1.3-1.4,2.5-2.1,3.8c-0.2,0.2-0.5,0.2-0.8,0.2c-0.3-0.3-0.4-0.6-0.4-1C39.5,118.5,40.8,117.3,42.5,117.2z M41.6,113.5
			c-0.5,1.3-1,2.5-1.6,3.8c-0.3,0.3-0.6,0.4-1,0.3c-0.2,0-0.4-0.6-0.4-0.9c0.3-1.5,1.3-2.7,2.5-3.5L41.6,113.5z M40.7,88.2
			c-1,1.6-1.8,2.9-2.6,4.3c-0.2,0.2-0.4,0.3-0.7,0.2c-0.2-0.2-0.3-0.4-0.4-0.7C37,91,39.2,88.5,40.7,88.2z M41.2,93
			c-0.4,0.5-0.7,1.1-1.1,1.5c-0.5,0.6-1,1.1-1.5,1.5c-0.2,0.2-0.7,0.2-1,0.3c0-0.4-0.2-1,0-1.1c1-0.9,2.1-1.8,3.1-2.6L41.2,93z
			 M41,97.2c-0.1,0.3-0.2,0.7-0.4,1c-0.6,0.8-1.2,1.6-1.8,2.4c-0.2,0.2-0.6,0.2-0.9,0.2c-0.1-0.3-0.3-0.7-0.2-0.9
			c0.7-1.3,1.7-2.3,3-3L41,97.2z M40.6,101.8c0.2,1.3-0.3,2.6-1.3,3.4c-0.2,0.2-0.8,0.2-1.2,0.2c0-0.4-0.2-1,0-1.2
			C38.8,103.4,39.7,102.6,40.6,101.8z M32.2,47.1c8.4,1,16.8,1.9,25.3,1.2c7.3-0.7,14.6-1.3,21.9-1.9c3.2-0.2,6.5-0.3,9.7-0.5
			c3.3-0.3,6.6-1.1,9.7-2.4c0.7-0.3,1.5-0.5,2.3-0.6c-0.5,0.3-1,0.5-1.6,0.8c-5.7,2.2-11.6,3.7-17.7,4.5
			c-12.6,1.9-25.4,2.6-38.2,1.9C39.8,49.8,35.9,48.8,32.2,47.1L32.2,47.1z M448.8,42.8c3.3,0.9,6.6,2.1,10.1,2.8
			c2.9,0.4,5.8,0.7,8.7,0.7c4.2,0.3,8.5,0.6,12.7,1c9.2,0.9,18.4,1.6,27.6,0.8c2.4-0.2,4.7-0.5,7-0.8c0.8-0.1,1.6-0.1,2.7-0.2
			c-3.6,1.7-7.4,2.7-11.3,2.9c-12.2,0.7-24.4,0.1-36.5-1.7c-6.5-0.8-12.9-2.4-19.1-4.8C450,43.4,449.3,43,448.8,42.8z M232.2,156.8
			c-0.7,1.1-2,1.7-3.3,1.2c-1.5-0.5-1.8-1.6-1.7-3.1c-1.6,0.8-3.4,0.3-4.5-1.1c-0.5-0.6-0.5-1.6,0-2.2l4.9,2.3l1.2-2l0.3,0.1
			c0,0.6,0.1,1.3,0.1,1.9c0,1.2,0.3,2.1,1.6,2.4C231.4,156.4,231.8,156.6,232.2,156.8L232.2,156.8z M327.5,151.6
			c0.5,0.8,0.4,1.9-0.3,2.5c-1.1,1.2-2.8,1.6-4.2,0.8c0.1,1.5-0.2,2.7-1.7,3.2c-1.2,0.4-2.5-0.1-3.2-1.1c0.9-0.6,2.1-1,2.6-1.8
			s0.3-2.1,0.6-3.2l1.2,2L327.5,151.6z M312.5,155.8l-2.9-0.3l-0.1-0.5l3.2-2.8l0.6,2.6c1.2-0.8,3.5,0.1,4-2.3c1.2,1.6,1.1,3-0.5,4
			C315.1,157.6,313.3,157.2,312.5,155.8L312.5,155.8z M232.9,152.3c0.5,2.6,2.8,1.6,4.1,2.5l0.6-2.6l3.2,2.9l-0.1,0.5l-2.9,0.3
			c-0.9,1.4-2.6,1.7-4.3,0.6C231.9,155.5,231.7,154.3,232.9,152.3L232.9,152.3z M219.6,148.3c1,0.2,2,0.4,2.9,0.6
			c0.2,0.1,0.4,0.2,0.6,0.4c-0.8,0.8-2.1,0.8-2.9-0.1C219.9,149,219.7,148.7,219.6,148.3L219.6,148.3z M330.8,148.2
			c-0.9,1.7-2.1,2-3.9,1L330.8,148.2z M24.9,164c-1.4,0.3-2.8,0.5-4.1,0.9c-1.4,0.4-2.7,1-3.9,1.7c-0.9,0.5-0.8,1.6,0.2,1.8
			c1.6,0.3,3.2,0.3,4.7,0.2c1.9-0.2,3.7-0.9,5.6-0.3c0,0,0.1,0,0.1,0c3.4-1.3,7.3-0.5,10.5-2.5c0.8-0.4,1.2-1.2,1-2.1
			c-0.4-1-1.4-1.6-2.5-1.6c-2,0.2-3.9,0.4-5.8,0.6c-0.3,0.1-0.6,0.1-0.8,0.1c-0.4-0.2-0.7-0.4-1.1-0.6c0.3-0.3,0.6-0.7,0.9-0.8
			c2.2-0.4,4.5-0.8,6.7-1.2c1.7-0.3,4.1,1.2,4.4,2.9c0.5,2.6,0,3.8-2,4.8s-4.2,2-6.7,1.7c-0.6-0.1-1.3,0.4-1.9,0.6
			c-1.2,0.2-2.3,0.4-3.5,0.6c-0.8,0.1-1.7,0.1-2.6,0.2c-2,0.3-4,0.4-6.1,0.5c-1.8,0.1-3.3-1.2-3.5-3c0-0.3,0-0.6,0.1-1
			c0.2-0.8,0.6-1.6,1.3-2.1C18.8,163.5,21.8,163.5,24.9,164L24.9,164z M7.1,170.2c0.3,1,0.5,1.7,0.7,2.4c0.5,1.6,2.2,2.6,3.9,2.3
			c0.5-0.1,0.9-0.2,1.4-0.4c1.3-0.7,3-0.4,3.9,0.8c1.5,1.5,3.8,1.3,5.8,1c1.3-0.3,2.5-0.8,3.7-1.4c1.2-0.5,2.5-0.6,3.7-0.3
			c1.3,0,2.5-0.4,3.6-1.1c0.9-0.7,2-1,3.1-0.8c0.4,0.2,0.7,0.4,1,0.7c-0.3,0.4-0.7,1.1-1,1c-1.1-0.1-1.5,0.6-2.2,1.1
			c-1.4,1.4-3.5,1.9-5.4,1.4c-0.7-0.1-1.4,0-2,0.3c-2.5,1.4-5.3,1.8-8.1,1.2c-1.5-0.2-2.7-1.1-3.4-2.4c-0.4-0.8-0.9-0.8-1.7-0.5
			c-1.1,0.4-2.3,0.7-3.6,0.8C7.5,176,5.8,173.2,7.1,170.2L7.1,170.2z M525.3,164c3-0.4,6-0.4,8.7,1.1c1.2,0.6,1.8,1.9,1.6,3.2
			c-0.1,1.4-1.1,2.5-2.4,2.8c-2.1,0.5-4.3,0.5-6.4-0.1c-1.2-0.2-2.5-0.2-3.7-0.4c-1-0.1-2-0.4-3-0.6c-0.9-0.3-1.9-0.5-2.9-0.6
			c-2.6,0-4.7-1.2-6.8-2.4c-1.1-0.7-1.4-2.7-0.9-4.2c0.8-1.8,2.8-2.9,4.8-2.6c2,0.4,4,0.7,6,1.1c0.5,0.2,0.9,0.5,1.3,0.8
			c-0.4,0.3-0.9,0.4-1.5,0.5c-2-0.1-4-0.4-6.1-0.6c-1.1-0.1-2.1,0.4-2.6,1.4c-0.4,0.6-0.3,1.5,0.3,2c0.1,0,0.1,0.1,0.2,0.1
			c1.7,0.9,3.4,2,5.5,1.8c0.2-0.1,0.5-0.1,0.7,0c3.1,1.2,6.4,0.6,9.6,1.2c1.6,0.2,3.2,0.3,4.8,0.2c0.5,0,0.9-0.6,1.4-0.9
			c-0.3-0.5-0.6-0.9-1-1.3c-2-1.5-4.5-1.6-6.9-2.2C525.8,164.1,525.6,164,525.3,164L525.3,164z M543.4,170.5c0.3,1.5,0.5,3-0.7,4.2
			c-1.2,1.3-3,1.8-4.7,1.4c-0.2,0-0.3-0.1-0.5-0.1c-0.8-0.2-1.6-0.8-2.2-0.7s-0.9,1.2-1.5,1.6c-0.8,0.6-1.7,1.1-2.6,1.4
			c-2.6,0.7-5.3,0.3-7.7-1c-1-0.6-2.2-0.7-3.3-0.4c-1.9,0.3-3.8-0.3-5-1.7c-0.5-0.5-0.9-0.9-1.7-0.8c-0.4,0-0.8-0.6-1.2-1
			c0.4-0.3,0.8-0.6,1.2-0.8c1-0.2,2.1,0.1,2.9,0.8c1.2,1.1,2.9,1.5,4.4,1.1c1-0.3,2.3,0.3,3.4,0.6c1.6,0.5,3.3,1,4.9,1.3
			c1.9,0.3,3.8-0.3,5-1.8c0.3-0.4,1.3-0.4,2-0.4c0.7,0.2,1.5,0.4,2.2,0.6c1.8,0.5,3.7-0.5,4.2-2.3c0,0,0,0,0,0
			c0.2-0.7,0.4-1.3,0.6-2L543.4,170.5z M72.2,151l-6.6-3.8c0.7-1,2-1.3,3.1-0.8c1.6,0.8,3.2,1.7,4.6,2.8c1.8,1.4,1.5,2.7-0.3,4
			c-1.9,1.5-4.5,1.8-6.7,0.9c-0.7-0.2-1.3-0.2-2-0.2c-1.2,0-2.5,0.1-3.7,0.1c-1.5,0-2.8-0.6-3.7-1.8c-0.5-0.8-1.4-1.2-2.3-1.1
			c-0.8,0.1-1.5,0-2.3,0c-1-0.1-1.8-0.8-2.1-1.7c-0.3-0.9,0.2-1.9,1-2.3c2.6-1.9,7-2,9.4,0.1l-1.2-0.2c-1.2-0.2-2.4-0.4-3.7-0.5
			c-1.3,0-2.6,0.5-3.5,1.5c-0.2,0.1-0.3,0.5-0.3,0.6c0.1,0.2,0.3,0.4,0.6,0.4c0.7,0,1.4,0,2.2,0c1.4-0.1,2.7,0.5,3.5,1.6
			c0.6,0.9,1.6,1.4,2.7,1.3c1.1,0,2.2-0.1,3.2-0.1c0.9,0,1.8,0.1,2.7,0.3C68.8,152.8,70.4,152.5,72.2,151L72.2,151z M484.6,147.3
			l-6.5,3.7c1.1,1.2,2.8,1.7,4.4,1.4c1.5-0.2,3.1-0.4,4.6-0.5c0.9,0,1.7,0,2.6,0c0.7-0.1,1.3-0.4,1.8-0.9c1-1.4,2.7-2.2,4.5-2
			c0.7,0,1.4-0.2,2.1-0.4c-0.5-0.6-1-1.1-1.5-1.5c-1.6-1-3.3-0.7-5-0.4c-0.6,0.1-1.2,0.3-1.8,0.4l-0.1-0.3c0.4-0.3,0.8-0.6,1.3-0.8
			c2.8-0.8,5.5-0.9,8,1c0.8,0.4,1.2,1.3,1,2.2c-0.2,0.9-1,1.6-1.9,1.7c-0.8,0.1-1.7,0.1-2.5,0.1c-0.8-0.1-1.7,0.3-2.1,1
			c-0.9,1.2-2.3,2-3.8,1.9c-0.7,0-1.4,0-2.1,0c-1.5-0.2-3.1-0.1-4.6,0.4c-2.6,0.9-4.7-0.4-6.6-2c-0.6-0.6-0.7-1.5-0.1-2.2
			c0,0,0,0,0,0c1.5-2.1,3.8-3.5,6.4-4c0.6-0.1,1.4,0.4,2.1,0.6L484.6,147.3z"/>
	</g>
</g>
<g>
	<path class="st1" d="M371.1,70.8c1.4-6.5,1-12.8-1.6-19.4c-2.5-6.6-5.4-13.4-13.3-19.5c-8-6.1-21.9-12.8-33.9-16.5
		c-12.2-3.8-24.4-5.5-38.4-5.8c-14.2-0.5-31.4-0.1-45.5,3.5c-14.1,3.6-28.7,10.9-38,17.9c-9.4,6.8-14.8,15.2-17.4,23.3
		c-2.4,8.1-1.7,16.3,2.5,25c-0.4,3.2-2,4.9-5.1,5.4c-3.2,0.3-11.2-3.8-13.3-3c-2.2,0.8-1.1,5.6,0.4,7.2c1.5,1.5,4.1,2.2,8.2,2
		c-2.9,1.5-4.4,2.9-4.6,4.2c-0.1,1.4,1.1,2.6,3.7,3.8l-7.9,9.7l0.6,5.2c2.5-0.3,5.1-0.4,7.8,0c2.7,0.2,5.6,0.8,8.6,1.6
		c-5.9,1.9-9,4.3-9.5,7.1c-0.4,2.8,1.7,6.1,6.9,9.9c-0.6,6.7,0.2,12.6,2.5,18c2.3,5.2,2.9,8.3,11,13.8c8.1,5.6,22.4,14.2,36.8,19
		c14.2,4.6,30,9.4,48.3,8.7c18.4-1,46.4-6.2,60.8-14c14.1-8,21.9-19,23.6-33.5l7.1-5.6c5.8-6.2,8.5-11,8.5-14.2
		c-0.2-3.4-3-4.9-9-5.2c0.2-2.2,0.5-4.5,0.4-7.6c-0.1-3-0.3-6.6-0.7-10.5c2.4,0,4.7,0.6,7.3,1.5c2.5,0.9,5.3,4.9,8.1,4
		c2.7-1,7.7-4.8,7.9-9.3c0-4.6-3.9-13.6-7.7-18C382.4,75,377.5,72.1,371.1,70.8L371.1,70.8z"/>
	<path class="st2" d="M367.9,73.8c-2.2,8.4-8.3,15.3-18.5,20.5c-10.5,5.2-26.9,8.8-43.2,10.4c-16.6,1.3-37.5,0.2-54.3-1.7
		c-16.8-2-34.4-4.4-45.6-9.7c-11.4-5.5-19.4-13.7-21.8-22.4c-2.4-8.8,0.4-20.2,7.7-29c7.3-8.8,22.8-18.2,35.6-23.3
		c12.8-5,28-5.7,40.4-6.5c12.2-0.9,21.7-0.3,33,1.5c11.4,1.7,23.8,4.2,34.3,9.3c10.2,5.1,21.2,12.3,26.7,20.9
		C367.7,52.4,369.8,65.2,367.9,73.8L367.9,73.8z"/>
	<path class="st2" d="M371.4,72.8c3.9,0.9,7.4,2.9,10.5,6.1c3.1,3.2,6.9,8.6,8,12.8c1,4.2-0.6,10.2-2,12c-1.5,1.5-3.4-0.8-6.9-1.9
		c-3.8-1.2-9.2-3.5-14.1-4.7c-4.8-1.1-9.7-2-14.7-2.3c3.8-0.9,7.2-3.1,10.4-6.8C365.9,84.3,368.8,79.3,371.4,72.8L371.4,72.8z"/>
	<path class="st2" d="M339.7,118.3c-3.5,0.9-6.4,3.6-8.7,8c-2.4,4.3-4.1,10.4-5.4,18.2c-0.5-1.5-3.3-3.5-8.4-6
		c-5.1-2.7-12.4-5.7-22.1-9.5c1-1.6,2.3-2.4,4.1-2.6c1.8-0.2,4.5,1.5,6.5,1.1c1.7-0.6,3.1-1.9,4.2-4.2c1.6,1.7,3.4,2.5,5.1,2.2
		c1.7-0.3,3.8-3.7,5.4-3.7c1.6-0.1,3,0.8,4.2,3c1-3.9,2.7-6.3,5.2-7.4C332.3,116.3,335.6,116.7,339.7,118.3L339.7,118.3z"/>
	<path class="st2" d="M294.3,129.9c3.7,1.5,7,2.8,10.2,4.1c3.1,1.2,4.9,1.7,8.5,3.6c3.5,1.8,7.7,4.3,12.7,7.4l-0.7,4
		c-4.9-3.5-9.8-6.5-15.2-9.2c-5.4-2.7-10.8-4.9-16.6-6.8C293.6,132,293.9,130.9,294.3,129.9L294.3,129.9z"/>
	<path class="st2" d="M168.8,108.3l7.4-7.3c3,2.2,5.5,3.3,7.6,3.6c2,0.2,3.3-2.3,4.9-2.2c1.6,0.1,2.6,2.8,4.6,2.6
		c2-0.4,5.3-4.8,6.8-4.5c1.3,0.3,1.6,2.2,1,6.1c0.7,1.5,1.3,2.6,1.6,3.7c0.2,1,0.2,1.8-0.2,2.4c-4.3-1.4-9.1-2.4-14.6-3.1
		c-5.6-0.7-11.8-1-18.6-0.9C169.2,108.7,168.8,108.3,168.8,108.3z"/>
	<path class="st2" d="M203.7,114.4c-3.1-1.3-7.4-2.3-13.3-3.1c-6.1-0.9-13.2-1.5-22.1-1.8l0.7,2.4c3.1,0.3,6.7,0.8,10.4,1.3
		c3.7,0.6,7.8,1.1,12.1,2.2c4.1,0.9,8.4,2,12.9,3.4C204.1,117.4,203.9,115.9,203.7,114.4L203.7,114.4z"/>
	<path class="st2" d="M203.9,95.9c-0.6,2.9-0.6,6.2-0.1,9.6c0.4,3.4,1.4,7.7,2.9,11c1.5,3.3,1.6,6.6,6.1,8.7
		c4.3,1.9,13.4,6.7,19.8,3.3c6.5-3.5,12.3-11.5,18.3-24.1c-6.7-0.3-13.7-1.3-21.6-2.6C221.3,100.4,213,98.4,203.9,95.9L203.9,95.9z"
		/>
	<path class="st2" d="M187.1,116.4c3.4,0.3,6.7,0.9,9.9,1.7c3.1,0.8,6.1,1.7,9,2.8c0.5,2.4,2,4.5,4.5,6.2c2.5,1.7,6.7,3.2,10.2,4.1
		c3.3,0.7,6.4,1.7,10,0.5c3.6-1.2,7.3-3.9,11.3-7.9c2.7,0.3,5.4,0.3,8.3,0c2.8-0.3,5.8-0.8,8.8-1.6c-1.2,2.7-0.7,4.5,1.5,5.3
		c2.2,0.8,5.8,0.5,11.4-0.7l-1.3,8.8c-6.2,3.1-13.3,4.9-21.7,5.9c-8.5,0.9-17.9,3-28.2-0.9C210.2,136.2,199.2,128.4,187.1,116.4
		L187.1,116.4z"/>
	<path class="st2" d="M281.1,132.5c2.6,2.9,6.5,5.4,12.2,7.4c5.6,2,12.7,3.5,21.5,4.6c-5.2-2.3-9.9-4.3-14-6.3
		c-4.3-2-7.8-3.7-11-5.3l-4.9-6.7C283.7,128.3,282.4,130.4,281.1,132.5L281.1,132.5z"/>
	<path class="st2" d="M293.4,122.6c-1.6-5.4-3.1-10.9-4.7-16.3c-8.7,0.2-15.8,0.3-21.8,0.2c-6.1-0.2-10.5-0.5-13.9-1
		c-4,6.1-6.4,10.6-7.3,13.3c-0.9,2.6,0.3,2.9,2,3.3c1.6,0.3,4.9-0.2,7.9-0.8c2.9-0.6,5.8-1.6,9.3-2.8c-2.7,2.4-4,4.2-4.2,5.4
		c-0.1,1.1,1.1,1.5,3.4,1.8c2.1,0.2,5.3,0.1,9.6-0.3c-0.6,3.4-0.7,5.9,0,7.2c0.7,1.4,2.2,2.8,3.9,1c1.5-2.1,3.4-6,5.5-12.6
		c3.8,4.8,6.5,7.3,8.3,7.6C293,128.7,293.7,126.8,293.4,122.6L293.4,122.6z"/>
	<path class="st2" d="M329.8,140.8c2.7-0.7,5.8-1.7,9.3-3.2c3.6-1.5,7.3-3.2,11.6-5.5c-1.6-5.7-2.7-9.1-3.8-10.2
		c-1.1-1.2-1.4,3.9-2.4,3.5c-1-0.4-2.2-2.3-3.6-5.8c-3.4,2.1-6,4.9-7.9,8.5C331.1,131.6,330.2,135.8,329.8,140.8L329.8,140.8z"/>
	<path class="st2" d="M368.8,104.4l-6.4,5.7c0.2,3.2,0.5,5.9,1.3,8.1c0.7,2.2,1.5,3.7,2.8,4.9l3.2-3.5
		C369.4,114.6,369.1,109.5,368.8,104.4L368.8,104.4z"/>
	<path class="st2" d="M363.8,124.7c-0.5-1.8-1.8-2.5-3.4-2.6c-1.7-0.2-5.9,1.3-6.7,2.5c-0.9,1.2-0.4,2.8,1.5,4.9
		c2.2-1,3.8-1.7,5.4-2.6C362,126.1,363,125.4,363.8,124.7L363.8,124.7z"/>
	<path class="st2" d="M184.4,117.1c-5.2,1.2-7.4,3.4-6.4,7.1c1,3.6,7.7,10.3,11.9,14.6c4,4.2,4,5.7,12.3,10.5
		c8.3,4.8,20.8,13.6,36.9,17.8c16,4.2,40.5,8.2,58,6.7c17.3-1.8,31.7-9.2,44.8-16.4c13-7.1,23.6-15.7,32.6-26.1
		c2.2-4.1,2.8-6.8,1.7-7.9c-1.3-1.2-4-1.1-8.5,1.2c-4.7,2.3-12.1,8.7-18.5,12.3c-6.4,3.4-12.8,6-19.6,7.9l-3,7.1l-9.3-4.8
		c-3.7,0.7-8.6,0.3-14.7-1.5c-6.3-1.8-13.5-4.8-22.2-9.1c-7.7,3.1-15.6,5.5-24.3,6.9c-8.9,1.4-18.7,3-27.5,1.5
		c-8.8-1.7-16.8-6.1-24.2-10.8C196.9,129.4,190.4,123.9,184.4,117.1L184.4,117.1z"/>
	<path class="st1" d="M238.8,150.6c0.7,0.6,24,5.9,36.6,6.5c12.6,0.4,33.3-2.5,38.1-3.4c4.5-1-3.4-2.1-10.3-2.1
		c-7-0.1-20.2,1.9-31,1.8C261.3,153.2,238.2,149.9,238.8,150.6L238.8,150.6z"/>
	<path class="st2" d="M185.2,135.6c4.2,6.1,9.9,11.5,17.3,16.9c7.2,5.4,15.9,11,26.6,14.9c10.7,3.8,23.7,6.3,37,7.7
		c13.2,1.3,29.2,2.3,41.8,0.3c12.5-2.2,23.3-7.6,32.5-12.5c9-4.9,16-10.2,21.3-16.3c0.4,4.8-1.3,9.6-5.6,14.6
		c-4.4,5-11.2,10.9-19.6,15.1c-8.3,4.2-17.7,7.4-30.1,9.4c-12.7,1.8-29.9,3.8-45,1.9c-15.1-2-33.2-8-45-13.4
		c-11.9-5.4-20.2-11.9-25.5-18.5C185.8,149.4,183.8,142.8,185.2,135.6L185.2,135.6z"/>
	<path class="st2" d="M291.6,107.6c1.4,5.4,2.7,9.4,4.5,12.3c1.7,2.8,3.6,4,5.4,4.7c1.8,0.5,3.5,0.2,4.8-0.6
		c1.2-0.8,1.7-1.9,1.9-3.5c2,1.4,3.6,2,5.1,1.9c1.4-0.2,1.8-2.2,3.6-2.6c1.8-0.4,4-0.3,7,0.3c0.6-3.6,2.3-5.7,5.1-6.6
		c2.8-0.9,9.1,0.1,11.7,1.4c2.3,1.2,1.7,5,2.7,5.7c1,0.6,2.1-3.5,3.6-1.8c1.5,1.7,4,10.6,5,11.9c0.8,1.1-0.3-2.9-0.2-4.8
		c0-2-0.2-5.4,0.8-6.4c0.9-1,3.1,0.5,4.8,0.6c1.6,0.1,2.9,0.2,4.3,0.2c-1.6-2.8-2.3-5.1-2.2-7.3c0.1-2.3,0.9-3.9,2.5-5.9
		c1.5-2.2,3.9-4.5,6.9-6.9l-18.5-3.3c-4.1,2.1-9.4,3.8-16.4,5.7c-7.2,1.7-18.3,3.9-25.5,4.8C301.5,108.2,295.9,108.2,291.6,107.6
		L291.6,107.6z"/>
	<path class="st2" d="M188.2,81.1c0.4,2.2-0.4,3.9-2,4.7c-1.7,0.8-4.9,0.7-7.8,0.5c-3.1-0.3-8.8-2.5-9.9-2.1c-1,0.3,1.7,3.1,3.7,4.2
		c1.9,0.9,4.2,1.5,7.3,1.5c-2.3,2.5-3.5,4.5-3.4,6.3c0.1,1.7,1.9,3.5,3.7,4.2c1.6,0.5,4.2-0.7,6.1-0.5c1.8,0.2,2.5,2.2,5.1,1.5
		c2.7-1,6.2-3.1,10.8-6.8c-1.7-0.6-3.6-2.1-5.8-4.3C193.6,88,191.1,85,188.2,81.1z"/>
	<path class="st1" d="M217.2,101.4c-0.2-0.3-2-0.6-2.1-0.5c-0.1,0.1,0.2,0.9,0.8,1.1C216.1,102,217.3,101.5,217.2,101.4z"/>
	<path class="st1" d="M217.8,105.2c-0.2-0.3-2-0.6-2.1-0.5c-0.1,0.1,0.2,0.9,0.8,1.1C216.8,105.8,218,105.4,217.8,105.2z"/>
	<path class="st1" d="M217.8,112.7c-0.2-0.3-2-0.6-2.1-0.5c-0.1,0.1,0.2,0.9,0.8,1.1C216.8,113.3,218,112.9,217.8,112.7z"/>
	<path class="st1" d="M217.4,109c-0.2-0.3-2-0.6-2.1-0.5c-0.2,0.1,0.3,0.9,0.8,1.1C216.4,109.6,217.5,109.1,217.4,109z"/>
	<path class="st1" d="M219,117c-0.2-0.3-2-0.6-2.1-0.5c-0.1,0.1,0.2,0.9,0.8,1.1C217.9,117.7,219.1,117.2,219,117L219,117z"/>
	<path class="st1" d="M219.7,121.3c-0.2-0.3-2-0.6-2.1-0.5c-0.1,0.1,0.2,0.9,0.8,1.1C218.6,121.9,219.8,121.5,219.7,121.3
		L219.7,121.3z"/>
	<path class="st1" d="M224.7,122.4c0.1-0.3,1.9-0.5,2.1-0.3c0.2,0.2-0.6,0.8-0.9,1C225.5,123.1,224.6,122.6,224.7,122.4L224.7,122.4
		z"/>
	<path class="st1" d="M226.4,117.9c0.1-0.2,1.9-0.4,2.1-0.3c0.2,0.2-0.6,0.8-0.9,1C227.2,118.6,226.2,118,226.4,117.9L226.4,117.9z"
		/>
	<path class="st1" d="M227.8,113.8c0.1-0.3,1.9-0.5,2.1-0.3c0.2,0.1-0.6,0.9-0.9,1.1C228.6,114.5,227.6,113.9,227.8,113.8
		L227.8,113.8z"/>
	<path class="st1" d="M229.7,110.1c0.1-0.2,1.9-0.4,2.1-0.3c0.2,0.2-0.6,0.8-0.9,1C230.4,110.9,229.5,110.2,229.7,110.1z"/>
	<path class="st1" d="M230.8,106.2c0.1-0.3,1.9-0.5,2.1-0.3c0.2,0.2-0.6,0.8-0.9,1C231.6,106.9,230.7,106.4,230.8,106.2z"/>
	<path class="st1" d="M367.4,91.4c0.2-0.1,0.7-1.7,0.7-1.9c-0.1-0.3-1.2,0.2-1.3,0.6C366.7,90.4,367.2,91.5,367.4,91.4L367.4,91.4z"
		/>
	<path class="st1" d="M372.6,93.6c0.2-0.1,0.7-1.8,0.7-1.9c-0.1-0.3-1.2,0.2-1.3,0.6C371.9,92.6,372.4,93.7,372.6,93.6L372.6,93.6z"
		/>
	<path class="st1" d="M377.6,95.9c0.3-0.1,0.7-1.7,0.8-1.9c-0.2-0.3-1.2,0.2-1.3,0.6C376.9,94.9,377.4,96,377.6,95.9L377.6,95.9z"/>
	<path class="st1" d="M383.9,97.6c0.2-0.1,0.7-1.7,0.7-1.9c-0.1-0.3-1.2,0.2-1.3,0.6C383.1,96.5,383.6,97.6,383.9,97.6L383.9,97.6z"
		/>
	<path class="st1" d="M381.7,90.6c0.2-0.1,0.7-1.8,0.7-1.9c-0.1-0.3-1.2,0.2-1.3,0.6C381,89.6,381.4,90.7,381.7,90.6L381.7,90.6z"/>
	<path class="st1" d="M377.8,86c0.2-0.1,0.7-1.7,0.7-1.9c-0.1-0.3-1.2,0.2-1.3,0.6C377.1,85,377.6,86.1,377.8,86L377.8,86z"/>
	<path class="st1" d="M372,82.4c0.2-0.1,0.7-1.7,0.7-1.9c-0.1-0.3-1.2,0.2-1.3,0.6C371.3,81.4,371.8,82.5,372,82.4L372,82.4z"/>
	<path class="st1" d="M344.6,102.1c0.2-0.2,3.9,1,5.9,3.1c1.8,2.2,5.1,8.5,5.6,9.9c0.3,1.2-1.8-1-2.9-2.5c-1.1-1.7-2.2-5.3-3.6-7
		C348.1,103.6,344.4,102.2,344.6,102.1L344.6,102.1z"/>
	<path class="st1" d="M308.9,108.9c-0.4-0.3-0.1,2.9-1.1,4.4c-1.1,1.4-5,3.9-5,4.2c0,0.2,3.6-2.3,4.9-2.6c1.1-0.3,1,0,2.2,0.5
		c1,0.4,4.6,1.9,4.7,1.8c-0.1-0.2-3.7-1.7-4.6-3C309,112.7,309.2,108.9,308.9,108.9L308.9,108.9z"/>
	<path class="st1" d="M274.1,109.2c-0.4,1.5-0.7,3-1.1,4.4c-0.4,1.4,0.9,2.8-0.5,4.3c-1.4,1.5-8,4.4-7.8,4.6
		c0.2,0.1,6.4-3.6,8.2-3.2c1.7,0.5,1.8,5.7,2.2,5.7c0.4-0.2-1.1-3.2,1.3-5.1c2.4-1.9,5.4-2.1,5.4-2.1c-2.4,0.1-4.3-0.5-5.5-2
		C274.9,114.4,274.1,112.1,274.1,109.2L274.1,109.2z"/>
	<path class="st1" d="M223.1,60c-0.7,0-1.7,0.2-2.5,0.9c-0.9,0.6-2.5,1.6-2.6,2.6c-0.1,0.9,1,2.3,1.9,2.6c0.7,0,1.9-0.9,2.7-1.9
		c0.8-1.1,1.9-3.3,2-4C224.7,59.5,223.6,59.8,223.1,60z"/>
	<path class="st2" d="M222.6,60.7c-0.6,0-1.2,0.2-1.8,0.7c-0.7,0.5-2.2,1.4-2.2,2.3c-0.2,0.7,0.7,1.8,1.4,1.9
		c0.6-0.1,1.6-0.9,2.3-1.7c0.6-0.9,1.4-2.5,1.5-3C223.8,60.3,223.1,60.6,222.6,60.7z"/>
	<path class="st1" d="M257.8,71.3c0.1,0.5,0.4,1.4,1.2,2.2c0.7,0.7,2,2.1,3.1,2.2c0.9,0,2.4-1.3,2.6-1.9c0-0.9-1.1-1.7-2.2-2.4
		c-1.3-0.8-3.7-1.5-4.5-1.5C257.1,69.7,257.5,70.7,257.8,71.3L257.8,71.3z"/>
	<path class="st2" d="M258.6,71.7c0,0.5,0.3,0.9,0.9,1.6c0.6,0.6,1.8,1.7,2.7,1.9c0.7,0,1.8-0.9,1.9-1.5c-0.1-0.6-1.2-1.5-2-2
		c-1-0.6-2.9-1.1-3.4-1.2C258.1,70.5,258.4,71.1,258.6,71.7z"/>
	<path class="st1" d="M288.2,48c-0.7,0.1-1.7,0.2-2.5,0.9c-0.9,0.6-2.5,1.7-2.6,2.6c-0.1,0.9,1,2.3,1.9,2.5c0.7,0,1.9-0.9,2.7-1.9
		c0.8-1.1,1.9-3.3,2-4C289.8,47.5,288.7,47.8,288.2,48L288.2,48z"/>
	<path class="st2" d="M287.7,48.7c-0.6,0-1.2,0.2-1.8,0.7c-0.7,0.6-2.2,1.5-2.2,2.3c-0.2,0.7,0.7,1.7,1.4,1.9c0.6,0,1.6-0.9,2.3-1.7
		c0.6-0.9,1.4-2.5,1.5-3C288.9,48.3,288.2,48.5,287.7,48.7L287.7,48.7z"/>
	<path class="st1" d="M276.3,34c-0.4,0.5-0.8,1.2-0.9,2.3c-0.2,0.9-0.4,2.9,0.3,3.6c0.6,0.6,2.6,0.9,3.3,0.5c0.6-0.5,0.5-2,0.4-3.2
		c-0.2-1.3-1.5-3.6-1.9-4.1C276.9,32.5,276.6,33.3,276.3,34z"/>
	<path class="st2" d="M276.5,34.8c-0.2,0.3-0.7,0.9-0.7,1.7c-0.2,0.8-0.1,2.3,0.3,3.1c0.4,0.5,2,0.6,2.5,0.3
		c0.4-0.4,0.4-1.8,0.2-2.8c-0.4-1.1-0.9-2.7-1.4-3.1C277,33.6,276.7,34.3,276.5,34.8z"/>
	<path class="st1" d="M291.8,25.9c0.3,0.3,0.7,0.6,1.5,0.9c0.6,0.2,2.1,0.5,2.7,0.2c0.6-0.3,0.8-1.6,0.7-2c-0.4-0.4-1.3-0.7-2.3-0.6
		c-1,0-2.9,0.3-3.3,0.7C290.7,25.3,291.3,25.6,291.8,25.9L291.8,25.9z"/>
	<path class="st2" d="M292.3,25.9c0.2,0.2,0.5,0.5,1.2,0.6c0.6,0.2,1.8,0.3,2.3,0.2c0.4-0.2,0.7-1.3,0.5-1.5c-0.3-0.3-1.3-0.6-2-0.5
		c-0.8,0-2,0.2-2.4,0.5C291.5,25.4,292,25.6,292.3,25.9L292.3,25.9z"/>
	<path class="st1" d="M285.1,19.8c-0.3-0.5-0.5-0.9-1.1-1.3c-0.7-0.5-1.8-1.2-2.4-1.1c-0.8,0.1-1.5,1.1-1.5,1.6
		c0.1,0.5,0.9,1,1.9,1.3c0.8,0.3,2.7,0.5,3.3,0.5C285.8,20.6,285.3,20.2,285.1,19.8L285.1,19.8z"/>
	<path class="st2" d="M284.5,19.7c-0.2-0.4-0.5-0.6-0.9-1c-0.6-0.4-1.5-1-2-0.9c-0.6,0.1-1.3,0.7-1.1,1.2c0.1,0.3,0.9,0.9,1.7,1.1
		c0.7,0.2,1.9,0.3,2.5,0.3C285,20.3,284.6,20,284.5,19.7z"/>
	<path class="st1" d="M267.9,21.4c0.1-0.5,0.4-0.9,0.4-1.6c-0.2-0.8-0.2-2-0.7-2.4c-0.5-0.4-2-0.4-2.3,0c-0.4,0.4-0.3,1.4,0.1,2.2
		c0.3,0.7,1.2,2.3,1.7,2.6C267.6,22.4,267.6,21.7,267.9,21.4z"/>
	<path class="st2" d="M267.6,20.9c0.1-0.3,0.3-0.8,0.3-1.2c-0.1-0.7-0.2-1.7-0.5-2.1c-0.5-0.3-1.4-0.4-1.8,0
		c-0.3,0.2-0.2,1.2,0.2,1.9c0.2,0.6,0.9,1.7,1.3,2C267.3,21.6,267.4,21.1,267.6,20.9z"/>
	<path class="st1" d="M249.6,18.8c-0.1,0.5-0.1,0.9,0.2,1.7c0.2,0.6,0.7,1.8,1.4,2.1c0.6,0.2,1.9-0.3,2.2-0.7c0-0.5-0.2-1.4-0.9-2
		c-0.6-0.7-2.1-1.9-2.5-2C249.5,17.7,249.6,18.3,249.6,18.8z"/>
	<path class="st2" d="M250.1,19.2c-0.1,0.3-0.1,0.7,0.2,1.2c0.1,0.5,0.7,1.5,1.2,1.8c0.4,0.1,1.4-0.2,1.6-0.5c0-0.5-0.3-1.2-0.8-1.7
		c-0.4-0.6-1.6-1.4-1.9-1.5C250.1,18.3,249.9,18.9,250.1,19.2z"/>
	<path class="st1" d="M242.8,26.2c-0.2-0.4-0.7-1-1.2-1.2c-0.8-0.5-1.8-1.1-2.5-0.9c-0.8,0.2-1.4,1.1-1.3,1.7c0,0.5,1,0.9,2,1.2
		c0.8,0.2,2.8,0.3,3.3,0.3C243.5,26.9,243,26.5,242.8,26.2z"/>
	<path class="st2" d="M242.2,26c-0.2-0.4-0.4-0.6-0.9-0.9c-0.6-0.4-1.6-0.8-2.1-0.8c-0.5,0.1-1.2,0.8-1,1.3c0.1,0.4,1,0.7,1.8,1
		c0.7,0.2,2,0.3,2.5,0.2C242.7,26.7,242.3,26.2,242.2,26z"/>
	<path class="st1" d="M309.5,17.9c-0.4-0.3-1-0.6-1.7-0.7c-0.9-0.3-2.2-0.2-2.7,0.1c-0.6,0.3-0.9,1.6-0.5,2c0.3,0.3,1.3,0.5,2.3,0.4
		c0.9-0.2,2.7-0.7,3.1-1C310.6,18.4,309.9,18.2,309.5,17.9L309.5,17.9z"/>
	<path class="st2" d="M308.9,18c-0.3-0.3-0.7-0.5-1.2-0.5c-0.6-0.2-2-0.2-2.3,0c-0.5,0.3-0.7,1.1-0.3,1.6c0.3,0.2,1.2,0.4,2,0.3
		c0.7-0.2,2-0.5,2.4-0.8C309.7,18.4,309.2,18.2,308.9,18L308.9,18z"/>
	<path class="st1" d="M317.6,24c0.2-0.4,0.6-0.9,0.7-1.5c0.1-0.8,0.1-2-0.2-2.5c-0.4-0.5-2-0.7-2.3-0.4c-0.5,0.3-0.5,1.3-0.3,2.2
		c0.1,0.8,0.8,2.4,1.2,2.9C317,25,317.3,24.4,317.6,24L317.6,24z"/>
	<path class="st2" d="M317.5,23.5c0.2-0.2,0.4-0.8,0.5-1.2c0-0.6,0-1.8-0.2-2.1c-0.4-0.5-1.5-0.5-1.7-0.3c-0.4,0.3-0.3,1.1-0.2,1.9
		c0.1,0.7,0.5,1.7,0.9,2.2C317.1,24.2,317.2,23.8,317.5,23.5L317.5,23.5z"/>
	<path class="st1" d="M327.6,24.2c-0.1,0.3,0,1,0.2,1.6c0.2,0.6,0.9,1.7,1.5,2c0.6,0.2,1.8-0.3,2.1-0.7c0.1-0.5-0.3-1.4-0.9-2
		c-0.7-0.6-2.2-1.9-2.6-1.9C327.5,23,327.6,23.6,327.6,24.2L327.6,24.2z"/>
	<path class="st2" d="M328.1,24.5c-0.1,0.3-0.1,0.7,0.2,1.2c0.2,0.5,0.7,1.5,1.3,1.8c0.4,0.1,1.5-0.2,1.6-0.6c0-0.4-0.4-1.3-0.9-1.7
		c-0.5-0.6-1.6-1.3-1.9-1.4C328,23.6,328,24.2,328.1,24.5L328.1,24.5z"/>
	<path class="st1" d="M339.8,34.3c-0.4-0.3-0.9-0.7-1.6-0.8c-0.9-0.2-2.1-0.5-2.7-0.1c-0.6,0.3-1,1.6-0.6,2c0.3,0.4,1.3,0.5,2.3,0.5
		c1-0.1,2.6-0.6,3.2-0.8C340.7,34.9,340.2,34.5,339.8,34.3L339.8,34.3z"/>
	<path class="st2" d="M339.2,34.4c-0.4-0.2-0.6-0.5-1.2-0.6c-0.6-0.2-2-0.3-2.3-0.1c-0.5,0.2-0.7,1.2-0.4,1.5c0.3,0.2,1.2,0.5,2,0.4
		c0.9-0.1,1.9-0.4,2.4-0.6C339.8,34.8,339.5,34.7,339.2,34.4L339.2,34.4z"/>
	<path class="st1" d="M314.8,56.1c-0.5-0.6-1.3-1.1-2.2-1.4c-1.2-0.3-2.9-1-3.8-0.5c-0.9,0.4-1.6,2.1-1.2,2.9c0.3,0.6,1.8,0.9,3.3,1
		c1.4,0,3.9-0.4,4.7-0.7C316.2,57,315.2,56.6,314.8,56.1L314.8,56.1z"/>
	<path class="st2" d="M313.9,56.2c-0.4-0.4-0.9-0.9-1.6-1c-0.9-0.4-2.6-0.7-3.3-0.5c-0.8,0.3-1.3,1.5-0.9,2.2
		c0.3,0.4,1.7,0.8,2.9,0.8c1,0,2.9-0.3,3.6-0.5C314.9,56.9,314.3,56.5,313.9,56.2L313.9,56.2z"/>
	<path class="st1" d="M339.9,48.6c-0.7,0.1-1.7,0.2-2.5,0.9c-0.9,0.6-2.5,1.7-2.6,2.6c-0.1,0.9,1,2.3,1.9,2.5c0.7,0,1.9-0.9,2.7-1.9
		c0.8-1.1,1.9-3.3,2-4C341.5,48.1,340.5,48.4,339.9,48.6L339.9,48.6z"/>
	<path class="st2" d="M339.5,49.3c-0.6,0-1.2,0.1-1.8,0.6c-0.7,0.5-2.2,1.5-2.2,2.3c-0.2,0.7,0.7,1.7,1.4,1.9c0.6,0,1.6-0.9,2.3-1.7
		c0.6-0.9,1.4-2.5,1.5-3C340.6,48.9,340,49.2,339.5,49.3L339.5,49.3z"/>
	<path class="st1" d="M332.4,65.8c0.2,0.5,0.6,1.4,1.4,2c0.8,0.5,2.4,1.9,3.4,1.8c0.9-0.2,2.3-1.5,2.3-2.2c-0.1-0.9-1.5-1.5-2.6-2.1
		c-1.3-0.6-4-1.1-4.7-1C331.4,64.4,332.1,65,332.4,65.8L332.4,65.8z"/>
	<path class="st2" d="M333.2,66c0.2,0.4,0.3,1,1.1,1.5c0.7,0.6,2,1.5,2.9,1.5c0.7-0.1,1.8-1.1,1.7-1.7c-0.1-0.7-1.5-1.3-2.3-1.8
		c-1-0.5-3-0.8-3.5-0.7C332.5,64.9,332.9,65.5,333.2,66L333.2,66z"/>
	<path class="st1" d="M330.8,84.7c0.2-0.6,0.4-1.5,0.3-2.4c-0.2-1-0.5-3-1.2-3.4c-0.8-0.5-2.9-0.4-3.3,0.3c-0.5,0.5-0.2,2,0.4,3.1
		c0.6,1.1,2.1,3.1,2.9,3.6C330.5,86.2,330.6,85.3,330.8,84.7L330.8,84.7z"/>
	<path class="st2" d="M330.4,84c0.2-0.5,0.2-1.1,0.2-1.8c-0.1-0.9-0.5-2.5-1.1-2.9c-0.7-0.5-2.2-0.3-2.5,0.2c-0.4,0.5,0,1.7,0.5,2.7
		c0.4,0.8,1.6,2.4,2.1,2.7C330.1,85.2,330.2,84.4,330.4,84L330.4,84z"/>
	<path class="st1" d="M302,75.3c-0.6-0.5-1.1-1.1-2.2-1.4c-1.1-0.3-2.9-1-3.8-0.6c-0.9,0.4-1.7,2-1.3,2.8c0.2,0.7,1.8,0.9,3.2,1.1
		c1.4-0.1,3.9-0.3,4.7-0.7C303.4,76.2,302.4,75.7,302,75.3L302,75.3z"/>
	<path class="st2" d="M301.1,75.4c-0.4-0.4-0.9-0.8-1.6-1.1c-0.9-0.4-2.6-0.7-3.3-0.5c-0.8,0.3-1.3,1.5-0.9,2.2
		c0.2,0.5,1.7,0.8,2.9,0.9c1,0,2.9-0.3,3.6-0.5C302.2,76,301.4,75.7,301.1,75.4L301.1,75.4z"/>
	<path class="st1" d="M250.3,82.6c-0.7,0-1.7,0.2-2.5,0.9c-0.9,0.6-2.5,1.6-2.6,2.6c-0.1,0.9,1,2.3,1.9,2.6c0.7,0,1.9-0.9,2.7-1.9
		c0.8-1.1,1.9-3.3,2-4C252,82.1,250.9,82.4,250.3,82.6z"/>
	<path class="st2" d="M249.9,83.3c-0.6,0-1.2,0.2-1.8,0.7c-0.7,0.5-2.2,1.4-2.2,2.3c-0.2,0.7,0.7,1.8,1.4,1.9
		c0.6-0.1,1.6-0.9,2.3-1.7c0.6-0.9,1.4-2.5,1.5-3C251,82.8,250.4,83.1,249.9,83.3z"/>
	<path class="st1" d="M228.8,89.7c-0.4-0.6-1-1.2-1.9-1.7c-1-0.6-2.8-1.4-3.7-1.1c-1,0.2-2,1.9-1.8,2.6c0,0.7,1.7,1.2,3,1.5
		c1.2,0.2,4,0.3,4.8,0.1C229.9,90.9,229.1,90.2,228.8,89.7z"/>
	<path class="st2" d="M227.9,89.6c-0.4-0.5-0.7-1-1.4-1.3c-0.9-0.5-2.4-1.2-3.1-1c-0.8,0.1-1.5,1.4-1.3,2c0.2,0.5,1.6,1,2.6,1.3
		c1,0.2,3,0.3,3.6,0.1C228.8,90.4,228.1,90.1,227.9,89.6z"/>
	<path class="st1" d="M200.4,79.9c0.6,0.3,1.5,0.5,2.5,0.7c1.1,0,3.1-0.1,3.8-0.6c0.6-0.7,0.7-2.6,0.2-3.1c-0.6-0.6-2.2-0.5-3.4-0.1
		c-1.4,0.3-3.8,1.5-4.3,2.1C198.7,79.4,199.7,79.5,200.4,79.9z"/>
	<path class="st2" d="M201.2,79.6c0.4,0.2,1,0.4,1.9,0.5c0.8,0,2.7-0.1,3.3-0.5c0.5-0.6,0.5-2,0.1-2.3c-0.5-0.4-2-0.3-3,0
		c-1.1,0.2-2.8,1.1-3.2,1.5C199.9,79.2,200.7,79.3,201.2,79.6z"/>
	<path class="st1" d="M195.1,63.7c-0.2-0.7-0.6-1.4-1.3-2.1c-0.9-0.8-2.2-2.1-3.1-2.1c-1,0-2.5,1.2-2.5,2c0,0.7,1.1,1.6,2.3,2.3
		c1.1,0.7,3.7,1.2,4.6,1.4C195.7,65.1,195.4,64.3,195.1,63.7z"/>
	<path class="st2" d="M194.3,63.4c-0.2-0.5-0.4-1-0.9-1.6c-0.7-0.6-2-1.9-2.7-1.8c-0.8-0.1-2,0.9-1.9,1.5c0,0.6,1.1,1.4,2.1,2
		c0.9,0.5,2.8,0.9,3.4,1C194.7,64.5,194.5,63.8,194.3,63.4z"/>
	<path class="st1" d="M194.1,44.9c-0.4,0.5-0.6,1.3-0.4,2.4c0.2,0.9,0.2,2.8,1.1,3.4c0.7,0.5,2.7,0.4,3.3-0.1c0.3-0.6,0.3-2-0.3-3.2
		c-0.5-1.2-2.2-3.3-2.7-3.7C194.5,43.2,194.3,44.2,194.1,44.9z"/>
	<path class="st2" d="M194.5,45.6c-0.2,0.3-0.4,1-0.3,1.8c0,0.8,0.3,2.4,0.9,3c0.6,0.4,2,0.3,2.5-0.1c0.2-0.5,0.1-1.9-0.3-2.8
		c-0.4-1-1.6-2.5-2-2.8C194.7,44.3,194.7,45.1,194.5,45.6z"/>
	<path class="st1" d="M209.7,39.6c-0.2,0.6-0.3,1.4,0.1,2.4c0.3,0.9,0.9,2.6,1.8,3.2c0.8,0.4,2.7-0.2,3.2-0.7c0.3-0.7-0.4-2.1-1-3.1
		c-0.8-1.1-2.7-2.8-3.4-3.1C209.7,38,209.8,38.8,209.7,39.6z"/>
	<path class="st2" d="M210.3,40.2c-0.2,0.4-0.2,1,0,1.8c0.2,0.8,0.8,2.2,1.5,2.8c0.7,0.3,2,0,2.5-0.5c0.3-0.6-0.4-1.8-0.9-2.6
		c-0.6-1-2.1-2.1-2.5-2.4C210.3,38.9,210.4,39.6,210.3,40.2z"/>
	<path class="st1" d="M237.9,36.5c-0.5,0-1.1,0.2-1.7,0.6c-0.7,0.4-1.7,1.2-1.8,1.9c-0.1,0.6,0.7,1.6,1.3,1.7
		c0.6,0.1,1.3-0.6,1.9-1.3c0.5-0.8,1.3-2.3,1.4-2.8C239,36.2,238.3,36.3,237.9,36.5z"/>
	<path class="st2" d="M237.5,37c-0.4,0-0.8,0.1-1.2,0.5c-0.5,0.3-1.6,1-1.6,1.6c-0.2,0.4,0.5,1.2,1,1.3c0.5,0,1-0.8,1.6-1.2
		c0.4-0.6,1-1.7,1.1-2.1C238.3,36.6,237.9,36.9,237.5,37z"/>
	<path class="st1" d="M227.5,42.7c-0.5,0-1.1,0.2-1.7,0.6c-0.8,0.4-1.8,1.2-1.8,1.9c-0.1,0.6,0.7,1.6,1.3,1.7c0.6,0,1.2-0.7,1.9-1.3
		c0.6-0.8,1.3-2.2,1.4-2.8C228.7,42.3,227.9,42.4,227.5,42.7z"/>
	<path class="st2" d="M227.2,43.2c-0.4,0-0.8,0.1-1.3,0.5c-0.5,0.3-1.5,1-1.6,1.6c-0.2,0.5,0.5,1.2,1,1.3c0.5,0,1-0.7,1.6-1.2
		c0.4-0.6,0.9-1.7,1-2.1C227.9,42.8,227.6,43,227.2,43.2z"/>
	<path class="st1" d="M244.1,47.9c-0.2,0.4-0.3,1,0,1.7c0.1,0.7,0.6,1.8,1.2,2.2c0.4,0.2,1.9,0,2.2-0.5c0.2-0.5-0.1-1.4-0.6-2.1
		c-0.7-0.8-1.7-2.1-2.2-2.2C244.2,46.8,244.1,47.5,244.1,47.9z"/>
	<path class="st2" d="M244.5,48.4c-0.1,0.2-0.3,0.8,0,1.3c0.1,0.6,0.4,1.5,1,1.9c0.4,0.2,1.4,0,1.7-0.3c0-0.4-0.1-1.3-0.6-1.9
		c-0.5-0.6-1.4-1.5-1.7-1.7C244.5,47.4,244.4,48,244.5,48.4z"/>
	<path class="st1" d="M266.3,58c-0.5,0-1.1,0.2-1.7,0.6c-0.7,0.3-1.7,1.1-1.8,1.8c-0.1,0.7,0.7,1.5,1.3,1.8c0.6,0,1.3-0.7,1.9-1.3
		c0.5-0.8,1.3-2.2,1.4-2.8C267.4,57.6,266.7,57.7,266.3,58z"/>
	<path class="st2" d="M266,58.4c-0.4,0-0.8,0.2-1.3,0.5c-0.5,0.4-1.5,0.9-1.6,1.5c-0.1,0.4,0.4,1.2,0.9,1.3c0.4,0,1.1-0.7,1.6-1.2
		c0.4-0.6,0.9-1.7,1.1-2.1C266.7,58.1,266.4,58.3,266,58.4z"/>
	<path class="st1" d="M265.5,41.3c-0.1-0.6,0-1-0.3-1.7c-0.3-0.8-1-1.8-1.5-2c-0.7-0.3-2,0.3-2.2,0.8c-0.3,0.4,0.4,1.3,1,2
		c0.5,0.6,2.1,1.7,2.6,1.9C265.6,42.3,265.5,41.7,265.5,41.3z"/>
	<path class="st2" d="M265.1,40.8c0-0.3,0-0.8-0.2-1.2c-0.3-0.6-0.8-1.6-1.3-1.8c-0.4-0.2-1.7,0.1-1.6,0.6c-0.2,0.4,0.4,1.1,0.9,1.7
		c0.4,0.5,1.6,1.2,2,1.4C265.1,41.7,265.1,41.1,265.1,40.8z"/>
	<path class="st1" d="M253.8,34.4c0.1-0.5,0.5-1,0.5-1.6c-0.1-0.8,0-2-0.5-2.5c-0.5-0.5-1.9-0.5-2.3-0.1c-0.4,0.3-0.3,1.3,0,2.2
		c0.2,0.8,1.1,2.2,1.6,2.7C253.3,35.5,253.6,34.7,253.8,34.4z"/>
	<path class="st2" d="M253.6,33.9c0.1-0.4,0.2-0.6,0.3-1.2c0-0.7-0.1-1.8-0.4-2.1c-0.5-0.5-1.4-0.3-1.7-0.1c-0.3,0.3-0.2,1.1,0,1.9
		c0.2,0.5,0.8,1.8,1.2,2C253.2,34.6,253.4,34.2,253.6,33.9z"/>
	<path class="st1" d="M224.9,29.9c-0.2-0.5-0.3-1.1-0.7-1.5c-0.6-0.7-1.3-1.5-2-1.6c-0.7-0.1-1.8,0.7-1.9,1.2
		c-0.1,0.6,0.6,1.1,1.4,1.7c0.8,0.5,2.4,1.1,3.1,1.2C225.3,30.9,225,30.2,224.9,29.9z"/>
	<path class="st2" d="M224.4,29.6c-0.2-0.3-0.1-0.7-0.5-1.1c-0.5-0.5-1.2-1.4-1.7-1.4c-0.6-0.1-1.4,0.5-1.4,0.9
		c-0.1,0.3,0.7,1,1.3,1.5c0.5,0.4,1.8,0.8,2.2,0.9C224.7,30.3,224.4,29.9,224.4,29.6z"/>
	<path class="st1" d="M308,32.6c0,0.4,0.1,0.9,0.5,1.6c0.3,0.6,1.1,1.5,1.8,1.8c0.7,0,1.8-0.5,2-1.1c0.1-0.6-0.6-1.3-1.3-1.9
		c-0.8-0.7-2.4-1.4-2.9-1.5C307.7,31.4,307.9,32.1,308,32.6L308,32.6z"/>
	<path class="st2" d="M308.5,32.9c0,0.3,0,0.6,0.4,1.2c0.4,0.4,0.9,1.4,1.6,1.6c0.4,0.1,1.3-0.5,1.5-0.8c0-0.6-0.7-1.1-1.1-1.6
		c-0.6-0.5-1.9-1.1-2.2-1.1C308.2,32,308.4,32.5,308.5,32.9L308.5,32.9z"/>
	<path class="st1" d="M188.3,126.6l-1.3,2l3.4,1.2L188.3,126.6L188.3,126.6z"/>
	<path class="st1" d="M204.5,136.5l-1.3,2l3.4,1.2L204.5,136.5L204.5,136.5z"/>
	<path class="st1" d="M197.7,137.2l-1.3,2l3.4,1.2L197.7,137.2L197.7,137.2z"/>
	<path class="st1" d="M229.7,157.4l-1.3,2l3.4,1.2L229.7,157.4L229.7,157.4z"/>
	<path class="st1" d="M280.6,142l-1.3,2l3.4,1.2L280.6,142L280.6,142z"/>
	<path class="st1" d="M321.1,158.2l-1.3,2l3.4,1.2L321.1,158.2L321.1,158.2z"/>
	<path class="st1" d="M340.8,146.3l-1.3,2l3.4,1.2L340.8,146.3L340.8,146.3z"/>
	<path class="st1" d="M361.3,134.5l-1.3,2l3.4,1.2L361.3,134.5L361.3,134.5z"/>
	<path class="st1" d="M263.1,160.5l-5.6,0.4v3.5l3-2.4l2.6,2V160.5L263.1,160.5z"/>
	<path class="st1" d="M267.3,143.9l-5.6,0.4v3.5l3-2.4l2.6,2V143.9L267.3,143.9z"/>
	<path class="st1" d="M208.5,143.1l-3.5,4l2.8,2.5l0.2-3.7l3.3-0.4L208.5,143.1L208.5,143.1z"/>
	<path class="st1" d="M305.9,160.8l-3.5,4l2.8,2.5l0.2-3.7l3.3-0.3L305.9,160.8L305.9,160.8z"/>
	<path class="st1" d="M354.6,140.3l-3.5,4l2.8,2.4l0.2-3.6l3.3-0.4L354.6,140.3L354.6,140.3z"/>
	<path class="st1" d="M224.2,147.5l-3.4,0.8l0.9,1.2l3,0.8L224.2,147.5L224.2,147.5z"/>
	<path class="st1" d="M224.6,154.2l-3.4,0.8l0.8,1.2l3,0.8L224.6,154.2L224.6,154.2z"/>
	<path class="st1" d="M244.7,153l-3.4,0.8l0.9,1.2l3,0.8L244.7,153L244.7,153z"/>
	<path class="st1" d="M250.2,163.3l-3.4,0.8l0.9,1.2l3,0.8L250.2,163.3L250.2,163.3z"/>
	<path class="st1" d="M264.3,165.6l-3.4,0.8l0.9,1.2l3,0.8L264.3,165.6L264.3,165.6z"/>
	<path class="st1" d="M274.6,158.2l-3.4,0.8l0.9,1.2l3,0.8L274.6,158.2L274.6,158.2z"/>
	<path class="st1" d="M280.1,165.6l-3.4,0.8l0.9,1.2l3,0.8L280.1,165.6L280.1,165.6z"/>
	<path class="st1" d="M290.4,159.3l-3.4,0.8l0.9,1.2l3,0.8L290.4,159.3L290.4,159.3z"/>
	<path class="st1" d="M296.8,164.8l-3.4,0.8l0.9,1.2l3,0.8L296.8,164.8L296.8,164.8z"/>
	<path class="st1" d="M336.5,153.8l-3.4,0.8l0.9,1.2l3,0.8L336.5,153.8L336.5,153.8z"/>
	<path class="st1" d="M371.6,126.6l-3.4,0.8l0.9,1.2l3,0.8L371.6,126.6L371.6,126.6z"/>
	<path class="st1" d="M322,152.2l-3.4,0.8l0.9,1.2l3,0.8L322,152.2L322,152.2z"/>
	<path class="st1" d="M235.3,149.1l-3.4,0.8l0.9,1.2l3,0.8L235.3,149.1L235.3,149.1z"/>
	<path class="st1" d="M182.7,120.7l-3.4,0.8l0.9,1.2l3,0.8L182.7,120.7L182.7,120.7z"/>
</g>
</svg>
